<?xml version="1.0" encoding="utf-8"?>
<svg xmlns="http://www.w3.org/2000/svg" xmlns:xlink="http://www.w3.org/1999/xlink" xml:space="preserve" width="800" height="800" viewBox="0 0 888 888"><rect width="888" height="888" fill="#ffffff" x="0" y="0"/><g fill="#000000">
<g transform="translate(240,48) scale(4.12)"><circle cx="3" cy="3" r="2"/></g>
<g transform="translate(288,48) scale(4.12)"><circle cx="3" cy="3" r="2"/></g>
<g transform="translate(336,48) scale(4.12)"><circle cx="3" cy="3" r="2"/></g>
<g transform="translate(384,48) scale(4.12)"><circle cx="3" cy="3" r="2"/></g>
<g transform="translate(408,48) scale(4.12)"><circle cx="3" cy="3" r="2"/></g>
<g transform="translate(432,48) scale(4.12)"><circle cx="3" cy="3" r="2"/></g>
<g transform="translate(456,48) scale(4.12)"><circle cx="3" cy="3" r="2"/></g>
<g transform="translate(480,48) scale(4.12)"><circle cx="3" cy="3" r="2"/></g>
<g transform="translate(552,48) scale(4.12)"><circle cx="3" cy="3" r="2"/></g>
<g transform="translate(600,48) scale(4.12)"><circle cx="3" cy="3" r="2"/></g>
<g transform="translate(624,48) scale(4.12)"><circle cx="3" cy="3" r="2"/></g>
<g transform="translate(240,72) scale(4.12)"><circle cx="3" cy="3" r="2"/></g>
<g transform="translate(264,72) scale(4.12)"><circle cx="3" cy="3" r="2"/></g>
<g transform="translate(384,72) scale(4.12)"><circle cx="3" cy="3" r="2"/></g>
<g transform="translate(408,72) scale(4.12)"><circle cx="3" cy="3" r="2"/></g>
<g transform="translate(576,72) scale(4.12)"><circle cx="3" cy="3" r="2"/></g>
<g transform="translate(624,72) scale(4.12)"><circle cx="3" cy="3" r="2"/></g>
<g transform="translate(240,96) scale(4.12)"><circle cx="3" cy="3" r="2"/></g>
<g transform="translate(288,96) scale(4.12)"><circle cx="3" cy="3" r="2"/></g>
<g transform="translate(360,96) scale(4.12)"><circle cx="3" cy="3" r="2"/></g>
<g transform="translate(384,96) scale(4.12)"><circle cx="3" cy="3" r="2"/></g>
<g transform="translate(408,96) scale(4.12)"><circle cx="3" cy="3" r="2"/></g>
<g transform="translate(528,96) scale(4.12)"><circle cx="3" cy="3" r="2"/></g>
<g transform="translate(552,96) scale(4.12)"><circle cx="3" cy="3" r="2"/></g>
<g transform="translate(576,96) scale(4.12)"><circle cx="3" cy="3" r="2"/></g>
<g transform="translate(600,96) scale(4.12)"><circle cx="3" cy="3" r="2"/></g>
<g transform="translate(624,96) scale(4.12)"><circle cx="3" cy="3" r="2"/></g>
<g transform="translate(264,120) scale(4.12)"><circle cx="3" cy="3" r="2"/></g>
<g transform="translate(360,120) scale(4.12)"><circle cx="3" cy="3" r="2"/></g>
<g transform="translate(408,120) scale(4.12)"><circle cx="3" cy="3" r="2"/></g>
<g transform="translate(456,120) scale(4.12)"><circle cx="3" cy="3" r="2"/></g>
<g transform="translate(528,120) scale(4.12)"><circle cx="3" cy="3" r="2"/></g>
<g transform="translate(552,120) scale(4.12)"><circle cx="3" cy="3" r="2"/></g>
<g transform="translate(576,120) scale(4.12)"><circle cx="3" cy="3" r="2"/></g>
<g transform="translate(600,120) scale(4.12)"><circle cx="3" cy="3" r="2"/></g>
<g transform="translate(288,144) scale(4.12)"><circle cx="3" cy="3" r="2"/></g>
<g transform="translate(312,144) scale(4.12)"><circle cx="3" cy="3" r="2"/></g>
<g transform="translate(336,144) scale(4.12)"><circle cx="3" cy="3" r="2"/></g>
<g transform="translate(432,144) scale(4.12)"><circle cx="3" cy="3" r="2"/></g>
<g transform="translate(456,144) scale(4.12)"><circle cx="3" cy="3" r="2"/></g>
<g transform="translate(480,144) scale(4.12)"><circle cx="3" cy="3" r="2"/></g>
<g transform="translate(552,144) scale(4.12)"><circle cx="3" cy="3" r="2"/></g>
<g transform="translate(624,144) scale(4.12)"><circle cx="3" cy="3" r="2"/></g>
<g transform="translate(240,168) scale(4.12)"><circle cx="3" cy="3" r="2"/></g>
<g transform="translate(312,168) scale(4.12)"><circle cx="3" cy="3" r="2"/></g>
<g transform="translate(336,168) scale(4.12)"><circle cx="3" cy="3" r="2"/></g>
<g transform="translate(384,168) scale(4.12)"><circle cx="3" cy="3" r="2"/></g>
<g transform="translate(408,168) scale(4.12)"><circle cx="3" cy="3" r="2"/></g>
<g transform="translate(432,168) scale(4.12)"><circle cx="3" cy="3" r="2"/></g>
<g transform="translate(456,168) scale(4.12)"><circle cx="3" cy="3" r="2"/></g>
<g transform="translate(480,168) scale(4.12)"><circle cx="3" cy="3" r="2"/></g>
<g transform="translate(576,168) scale(4.12)"><circle cx="3" cy="3" r="2"/></g>
<g transform="translate(240,192) scale(4.12)"><circle cx="3" cy="3" r="2"/></g>
<g transform="translate(288,192) scale(4.12)"><circle cx="3" cy="3" r="2"/></g>
<g transform="translate(336,192) scale(4.12)"><circle cx="3" cy="3" r="2"/></g>
<g transform="translate(384,192) scale(4.12)"><circle cx="3" cy="3" r="2"/></g>
<g transform="translate(432,192) scale(4.12)"><circle cx="3" cy="3" r="2"/></g>
<g transform="translate(480,192) scale(4.12)"><circle cx="3" cy="3" r="2"/></g>
<g transform="translate(528,192) scale(4.12)"><circle cx="3" cy="3" r="2"/></g>
<g transform="translate(576,192) scale(4.12)"><circle cx="3" cy="3" r="2"/></g>
<g transform="translate(624,192) scale(4.12)"><circle cx="3" cy="3" r="2"/></g>
<g transform="translate(240,216) scale(4.12)"><circle cx="3" cy="3" r="2"/></g>
<g transform="translate(264,216) scale(4.12)"><circle cx="3" cy="3" r="2"/></g>
<g transform="translate(288,216) scale(4.12)"><circle cx="3" cy="3" r="2"/></g>
<g transform="translate(312,216) scale(4.12)"><circle cx="3" cy="3" r="2"/></g>
<g transform="translate(336,216) scale(4.12)"><circle cx="3" cy="3" r="2"/></g>
<g transform="translate(360,216) scale(4.12)"><circle cx="3" cy="3" r="2"/></g>
<g transform="translate(384,216) scale(4.12)"><circle cx="3" cy="3" r="2"/></g>
<g transform="translate(456,216) scale(4.12)"><circle cx="3" cy="3" r="2"/></g>
<g transform="translate(552,216) scale(4.12)"><circle cx="3" cy="3" r="2"/></g>
<g transform="translate(576,216) scale(4.12)"><circle cx="3" cy="3" r="2"/></g>
<g transform="translate(624,216) scale(4.12)"><circle cx="3" cy="3" r="2"/></g>
<g transform="translate(96,240) scale(4.12)"><circle cx="3" cy="3" r="2"/></g>
<g transform="translate(120,240) scale(4.12)"><circle cx="3" cy="3" r="2"/></g>
<g transform="translate(144,240) scale(4.12)"><circle cx="3" cy="3" r="2"/></g>
<g transform="translate(192,240) scale(4.12)"><circle cx="3" cy="3" r="2"/></g>
<g transform="translate(240,240) scale(4.12)"><circle cx="3" cy="3" r="2"/></g>
<g transform="translate(360,240) scale(4.12)"><circle cx="3" cy="3" r="2"/></g>
<g transform="translate(408,240) scale(4.12)"><circle cx="3" cy="3" r="2"/></g>
<g transform="translate(456,240) scale(4.12)"><circle cx="3" cy="3" r="2"/></g>
<g transform="translate(504,240) scale(4.12)"><circle cx="3" cy="3" r="2"/></g>
<g transform="translate(552,240) scale(4.12)"><circle cx="3" cy="3" r="2"/></g>
<g transform="translate(576,240) scale(4.12)"><circle cx="3" cy="3" r="2"/></g>
<g transform="translate(648,240) scale(4.12)"><circle cx="3" cy="3" r="2"/></g>
<g transform="translate(672,240) scale(4.12)"><circle cx="3" cy="3" r="2"/></g>
<g transform="translate(696,240) scale(4.12)"><circle cx="3" cy="3" r="2"/></g>
<g transform="translate(768,240) scale(4.12)"><circle cx="3" cy="3" r="2"/></g>
<g transform="translate(792,240) scale(4.12)"><circle cx="3" cy="3" r="2"/></g>
<g transform="translate(816,240) scale(4.12)"><circle cx="3" cy="3" r="2"/></g>
<g transform="translate(72,264) scale(4.12)"><circle cx="3" cy="3" r="2"/></g>
<g transform="translate(120,264) scale(4.12)"><circle cx="3" cy="3" r="2"/></g>
<g transform="translate(144,264) scale(4.12)"><circle cx="3" cy="3" r="2"/></g>
<g transform="translate(168,264) scale(4.12)"><circle cx="3" cy="3" r="2"/></g>
<g transform="translate(360,264) scale(4.12)"><circle cx="3" cy="3" r="2"/></g>
<g transform="translate(384,264) scale(4.12)"><circle cx="3" cy="3" r="2"/></g>
<g transform="translate(408,264) scale(4.12)"><circle cx="3" cy="3" r="2"/></g>
<g transform="translate(432,264) scale(4.12)"><circle cx="3" cy="3" r="2"/></g>
<g transform="translate(528,264) scale(4.12)"><circle cx="3" cy="3" r="2"/></g>
<g transform="translate(600,264) scale(4.12)"><circle cx="3" cy="3" r="2"/></g>
<g transform="translate(648,264) scale(4.12)"><circle cx="3" cy="3" r="2"/></g>
<g transform="translate(672,264) scale(4.12)"><circle cx="3" cy="3" r="2"/></g>
<g transform="translate(744,264) scale(4.12)"><circle cx="3" cy="3" r="2"/></g>
<g transform="translate(768,264) scale(4.12)"><circle cx="3" cy="3" r="2"/></g>
<g transform="translate(816,264) scale(4.12)"><circle cx="3" cy="3" r="2"/></g>
<g transform="translate(48,288) scale(4.12)"><circle cx="3" cy="3" r="2"/></g>
<g transform="translate(168,288) scale(4.12)"><circle cx="3" cy="3" r="2"/></g>
<g transform="translate(192,288) scale(4.12)"><circle cx="3" cy="3" r="2"/></g>
<g transform="translate(216,288) scale(4.12)"><circle cx="3" cy="3" r="2"/></g>
<g transform="translate(240,288) scale(4.12)"><circle cx="3" cy="3" r="2"/></g>
<g transform="translate(312,288) scale(4.12)"><circle cx="3" cy="3" r="2"/></g>
<g transform="translate(384,288) scale(4.12)"><circle cx="3" cy="3" r="2"/></g>
<g transform="translate(408,288) scale(4.12)"><circle cx="3" cy="3" r="2"/></g>
<g transform="translate(480,288) scale(4.12)"><circle cx="3" cy="3" r="2"/></g>
<g transform="translate(576,288) scale(4.12)"><circle cx="3" cy="3" r="2"/></g>
<g transform="translate(648,288) scale(4.12)"><circle cx="3" cy="3" r="2"/></g>
<g transform="translate(696,288) scale(4.12)"><circle cx="3" cy="3" r="2"/></g>
<g transform="translate(72,312) scale(4.12)"><circle cx="3" cy="3" r="2"/></g>
<g transform="translate(120,312) scale(4.12)"><circle cx="3" cy="3" r="2"/></g>
<g transform="translate(144,312) scale(4.12)"><circle cx="3" cy="3" r="2"/></g>
<g transform="translate(168,312) scale(4.12)"><circle cx="3" cy="3" r="2"/></g>
<g transform="translate(240,312) scale(4.12)"><circle cx="3" cy="3" r="2"/></g>
<g transform="translate(288,312) scale(4.12)"><circle cx="3" cy="3" r="2"/></g>
<g transform="translate(312,312) scale(4.12)"><circle cx="3" cy="3" r="2"/></g>
<g transform="translate(336,312) scale(4.12)"><circle cx="3" cy="3" r="2"/></g>
<g transform="translate(360,312) scale(4.12)"><circle cx="3" cy="3" r="2"/></g>
<g transform="translate(384,312) scale(4.12)"><circle cx="3" cy="3" r="2"/></g>
<g transform="translate(408,312) scale(4.12)"><circle cx="3" cy="3" r="2"/></g>
<g transform="translate(456,312) scale(4.12)"><circle cx="3" cy="3" r="2"/></g>
<g transform="translate(504,312) scale(4.12)"><circle cx="3" cy="3" r="2"/></g>
<g transform="translate(600,312) scale(4.12)"><circle cx="3" cy="3" r="2"/></g>
<g transform="translate(624,312) scale(4.12)"><circle cx="3" cy="3" r="2"/></g>
<g transform="translate(648,312) scale(4.12)"><circle cx="3" cy="3" r="2"/></g>
<g transform="translate(744,312) scale(4.12)"><circle cx="3" cy="3" r="2"/></g>
<g transform="translate(768,312) scale(4.12)"><circle cx="3" cy="3" r="2"/></g>
<g transform="translate(96,336) scale(4.12)"><circle cx="3" cy="3" r="2"/></g>
<g transform="translate(120,336) scale(4.12)"><circle cx="3" cy="3" r="2"/></g>
<g transform="translate(144,336) scale(4.12)"><circle cx="3" cy="3" r="2"/></g>
<g transform="translate(168,336) scale(4.12)"><circle cx="3" cy="3" r="2"/></g>
<g transform="translate(192,336) scale(4.12)"><circle cx="3" cy="3" r="2"/></g>
<g transform="translate(264,336) scale(4.12)"><circle cx="3" cy="3" r="2"/></g>
<g transform="translate(312,336) scale(4.12)"><circle cx="3" cy="3" r="2"/></g>
<g transform="translate(408,336) scale(4.12)"><circle cx="3" cy="3" r="2"/></g>
<g transform="translate(456,336) scale(4.12)"><circle cx="3" cy="3" r="2"/></g>
<g transform="translate(480,336) scale(4.12)"><circle cx="3" cy="3" r="2"/></g>
<g transform="translate(552,336) scale(4.12)"><circle cx="3" cy="3" r="2"/></g>
<g transform="translate(576,336) scale(4.12)"><circle cx="3" cy="3" r="2"/></g>
<g transform="translate(600,336) scale(4.12)"><circle cx="3" cy="3" r="2"/></g>
<g transform="translate(696,336) scale(4.12)"><circle cx="3" cy="3" r="2"/></g>
<g transform="translate(720,336) scale(4.12)"><circle cx="3" cy="3" r="2"/></g>
<g transform="translate(768,336) scale(4.12)"><circle cx="3" cy="3" r="2"/></g>
<g transform="translate(792,336) scale(4.12)"><circle cx="3" cy="3" r="2"/></g>
<g transform="translate(72,360) scale(4.12)"><circle cx="3" cy="3" r="2"/></g>
<g transform="translate(96,360) scale(4.12)"><circle cx="3" cy="3" r="2"/></g>
<g transform="translate(144,360) scale(4.12)"><circle cx="3" cy="3" r="2"/></g>
<g transform="translate(168,360) scale(4.12)"><circle cx="3" cy="3" r="2"/></g>
<g transform="translate(336,360) scale(4.12)"><circle cx="3" cy="3" r="2"/></g>
<g transform="translate(360,360) scale(4.12)"><circle cx="3" cy="3" r="2"/></g>
<g transform="translate(384,360) scale(4.12)"><circle cx="3" cy="3" r="2"/></g>
<g transform="translate(408,360) scale(4.12)"><circle cx="3" cy="3" r="2"/></g>
<g transform="translate(432,360) scale(4.12)"><circle cx="3" cy="3" r="2"/></g>
<g transform="translate(456,360) scale(4.12)"><circle cx="3" cy="3" r="2"/></g>
<g transform="translate(504,360) scale(4.12)"><circle cx="3" cy="3" r="2"/></g>
<g transform="translate(600,360) scale(4.12)"><circle cx="3" cy="3" r="2"/></g>
<g transform="translate(624,360) scale(4.12)"><circle cx="3" cy="3" r="2"/></g>
<g transform="translate(672,360) scale(4.12)"><circle cx="3" cy="3" r="2"/></g>
<g transform="translate(744,360) scale(4.12)"><circle cx="3" cy="3" r="2"/></g>
<g transform="translate(816,360) scale(4.12)"><circle cx="3" cy="3" r="2"/></g>
<g transform="translate(48,384) scale(4.12)"><circle cx="3" cy="3" r="2"/></g>
<g transform="translate(72,384) scale(4.12)"><circle cx="3" cy="3" r="2"/></g>
<g transform="translate(96,384) scale(4.12)"><circle cx="3" cy="3" r="2"/></g>
<g transform="translate(144,384) scale(4.12)"><circle cx="3" cy="3" r="2"/></g>
<g transform="translate(192,384) scale(4.12)"><circle cx="3" cy="3" r="2"/></g>
<g transform="translate(216,384) scale(4.12)"><circle cx="3" cy="3" r="2"/></g>
<g transform="translate(240,384) scale(4.12)"><circle cx="3" cy="3" r="2"/></g>
<g transform="translate(264,384) scale(4.12)"><circle cx="3" cy="3" r="2"/></g>
<g transform="translate(312,384) scale(4.12)"><circle cx="3" cy="3" r="2"/></g>
<g transform="translate(384,384) scale(4.12)"><circle cx="3" cy="3" r="2"/></g>
<g transform="translate(408,384) scale(4.12)"><circle cx="3" cy="3" r="2"/></g>
<g transform="translate(432,384) scale(4.12)"><circle cx="3" cy="3" r="2"/></g>
<g transform="translate(504,384) scale(4.12)"><circle cx="3" cy="3" r="2"/></g>
<g transform="translate(576,384) scale(4.12)"><circle cx="3" cy="3" r="2"/></g>
<g transform="translate(696,384) scale(4.12)"><circle cx="3" cy="3" r="2"/></g>
<g transform="translate(744,384) scale(4.12)"><circle cx="3" cy="3" r="2"/></g>
<g transform="translate(768,384) scale(4.12)"><circle cx="3" cy="3" r="2"/></g>
<g transform="translate(792,384) scale(4.12)"><circle cx="3" cy="3" r="2"/></g>
<g transform="translate(72,408) scale(4.12)"><circle cx="3" cy="3" r="2"/></g>
<g transform="translate(96,408) scale(4.12)"><circle cx="3" cy="3" r="2"/></g>
<g transform="translate(120,408) scale(4.12)"><circle cx="3" cy="3" r="2"/></g>
<g transform="translate(240,408) scale(4.12)"><circle cx="3" cy="3" r="2"/></g>
<g transform="translate(288,408) scale(4.12)"><circle cx="3" cy="3" r="2"/></g>
<g transform="translate(336,408) scale(4.12)"><circle cx="3" cy="3" r="2"/></g>
<g transform="translate(384,408) scale(4.12)"><circle cx="3" cy="3" r="2"/></g>
<g transform="translate(408,408) scale(4.12)"><circle cx="3" cy="3" r="2"/></g>
<g transform="translate(552,408) scale(4.12)"><circle cx="3" cy="3" r="2"/></g>
<g transform="translate(576,408) scale(4.12)"><circle cx="3" cy="3" r="2"/></g>
<g transform="translate(600,408) scale(4.12)"><circle cx="3" cy="3" r="2"/></g>
<g transform="translate(624,408) scale(4.12)"><circle cx="3" cy="3" r="2"/></g>
<g transform="translate(648,408) scale(4.12)"><circle cx="3" cy="3" r="2"/></g>
<g transform="translate(672,408) scale(4.12)"><circle cx="3" cy="3" r="2"/></g>
<g transform="translate(720,408) scale(4.12)"><circle cx="3" cy="3" r="2"/></g>
<g transform="translate(744,408) scale(4.12)"><circle cx="3" cy="3" r="2"/></g>
<g transform="translate(768,408) scale(4.12)"><circle cx="3" cy="3" r="2"/></g>
<g transform="translate(816,408) scale(4.12)"><circle cx="3" cy="3" r="2"/></g>
<g transform="translate(72,432) scale(4.12)"><circle cx="3" cy="3" r="2"/></g>
<g transform="translate(96,432) scale(4.12)"><circle cx="3" cy="3" r="2"/></g>
<g transform="translate(144,432) scale(4.12)"><circle cx="3" cy="3" r="2"/></g>
<g transform="translate(168,432) scale(4.12)"><circle cx="3" cy="3" r="2"/></g>
<g transform="translate(192,432) scale(4.12)"><circle cx="3" cy="3" r="2"/></g>
<g transform="translate(288,432) scale(4.12)"><circle cx="3" cy="3" r="2"/></g>
<g transform="translate(312,432) scale(4.12)"><circle cx="3" cy="3" r="2"/></g>
<g transform="translate(336,432) scale(4.12)"><circle cx="3" cy="3" r="2"/></g>
<g transform="translate(360,432) scale(4.12)"><circle cx="3" cy="3" r="2"/></g>
<g transform="translate(408,432) scale(4.12)"><circle cx="3" cy="3" r="2"/></g>
<g transform="translate(432,432) scale(4.12)"><circle cx="3" cy="3" r="2"/></g>
<g transform="translate(480,432) scale(4.12)"><circle cx="3" cy="3" r="2"/></g>
<g transform="translate(504,432) scale(4.12)"><circle cx="3" cy="3" r="2"/></g>
<g transform="translate(528,432) scale(4.12)"><circle cx="3" cy="3" r="2"/></g>
<g transform="translate(600,432) scale(4.12)"><circle cx="3" cy="3" r="2"/></g>
<g transform="translate(648,432) scale(4.12)"><circle cx="3" cy="3" r="2"/></g>
<g transform="translate(696,432) scale(4.12)"><circle cx="3" cy="3" r="2"/></g>
<g transform="translate(720,432) scale(4.12)"><circle cx="3" cy="3" r="2"/></g>
<g transform="translate(792,432) scale(4.12)"><circle cx="3" cy="3" r="2"/></g>
<g transform="translate(816,432) scale(4.12)"><circle cx="3" cy="3" r="2"/></g>
<g transform="translate(48,456) scale(4.12)"><circle cx="3" cy="3" r="2"/></g>
<g transform="translate(72,456) scale(4.12)"><circle cx="3" cy="3" r="2"/></g>
<g transform="translate(96,456) scale(4.12)"><circle cx="3" cy="3" r="2"/></g>
<g transform="translate(120,456) scale(4.12)"><circle cx="3" cy="3" r="2"/></g>
<g transform="translate(168,456) scale(4.12)"><circle cx="3" cy="3" r="2"/></g>
<g transform="translate(240,456) scale(4.12)"><circle cx="3" cy="3" r="2"/></g>
<g transform="translate(264,456) scale(4.12)"><circle cx="3" cy="3" r="2"/></g>
<g transform="translate(288,456) scale(4.12)"><circle cx="3" cy="3" r="2"/></g>
<g transform="translate(312,456) scale(4.12)"><circle cx="3" cy="3" r="2"/></g>
<g transform="translate(336,456) scale(4.12)"><circle cx="3" cy="3" r="2"/></g>
<g transform="translate(360,456) scale(4.12)"><circle cx="3" cy="3" r="2"/></g>
<g transform="translate(408,456) scale(4.12)"><circle cx="3" cy="3" r="2"/></g>
<g transform="translate(456,456) scale(4.12)"><circle cx="3" cy="3" r="2"/></g>
<g transform="translate(480,456) scale(4.12)"><circle cx="3" cy="3" r="2"/></g>
<g transform="translate(528,456) scale(4.12)"><circle cx="3" cy="3" r="2"/></g>
<g transform="translate(552,456) scale(4.12)"><circle cx="3" cy="3" r="2"/></g>
<g transform="translate(600,456) scale(4.12)"><circle cx="3" cy="3" r="2"/></g>
<g transform="translate(624,456) scale(4.12)"><circle cx="3" cy="3" r="2"/></g>
<g transform="translate(672,456) scale(4.12)"><circle cx="3" cy="3" r="2"/></g>
<g transform="translate(96,480) scale(4.12)"><circle cx="3" cy="3" r="2"/></g>
<g transform="translate(144,480) scale(4.12)"><circle cx="3" cy="3" r="2"/></g>
<g transform="translate(192,480) scale(4.12)"><circle cx="3" cy="3" r="2"/></g>
<g transform="translate(216,480) scale(4.12)"><circle cx="3" cy="3" r="2"/></g>
<g transform="translate(288,480) scale(4.12)"><circle cx="3" cy="3" r="2"/></g>
<g transform="translate(312,480) scale(4.12)"><circle cx="3" cy="3" r="2"/></g>
<g transform="translate(336,480) scale(4.12)"><circle cx="3" cy="3" r="2"/></g>
<g transform="translate(384,480) scale(4.12)"><circle cx="3" cy="3" r="2"/></g>
<g transform="translate(456,480) scale(4.12)"><circle cx="3" cy="3" r="2"/></g>
<g transform="translate(576,480) scale(4.12)"><circle cx="3" cy="3" r="2"/></g>
<g transform="translate(672,480) scale(4.12)"><circle cx="3" cy="3" r="2"/></g>
<g transform="translate(768,480) scale(4.12)"><circle cx="3" cy="3" r="2"/></g>
<g transform="translate(792,480) scale(4.12)"><circle cx="3" cy="3" r="2"/></g>
<g transform="translate(120,504) scale(4.12)"><circle cx="3" cy="3" r="2"/></g>
<g transform="translate(168,504) scale(4.12)"><circle cx="3" cy="3" r="2"/></g>
<g transform="translate(240,504) scale(4.12)"><circle cx="3" cy="3" r="2"/></g>
<g transform="translate(288,504) scale(4.12)"><circle cx="3" cy="3" r="2"/></g>
<g transform="translate(312,504) scale(4.12)"><circle cx="3" cy="3" r="2"/></g>
<g transform="translate(336,504) scale(4.12)"><circle cx="3" cy="3" r="2"/></g>
<g transform="translate(360,504) scale(4.12)"><circle cx="3" cy="3" r="2"/></g>
<g transform="translate(384,504) scale(4.12)"><circle cx="3" cy="3" r="2"/></g>
<g transform="translate(408,504) scale(4.12)"><circle cx="3" cy="3" r="2"/></g>
<g transform="translate(456,504) scale(4.12)"><circle cx="3" cy="3" r="2"/></g>
<g transform="translate(504,504) scale(4.12)"><circle cx="3" cy="3" r="2"/></g>
<g transform="translate(552,504) scale(4.12)"><circle cx="3" cy="3" r="2"/></g>
<g transform="translate(576,504) scale(4.12)"><circle cx="3" cy="3" r="2"/></g>
<g transform="translate(600,504) scale(4.12)"><circle cx="3" cy="3" r="2"/></g>
<g transform="translate(624,504) scale(4.12)"><circle cx="3" cy="3" r="2"/></g>
<g transform="translate(648,504) scale(4.12)"><circle cx="3" cy="3" r="2"/></g>
<g transform="translate(720,504) scale(4.12)"><circle cx="3" cy="3" r="2"/></g>
<g transform="translate(744,504) scale(4.12)"><circle cx="3" cy="3" r="2"/></g>
<g transform="translate(768,504) scale(4.12)"><circle cx="3" cy="3" r="2"/></g>
<g transform="translate(792,504) scale(4.12)"><circle cx="3" cy="3" r="2"/></g>
<g transform="translate(72,528) scale(4.12)"><circle cx="3" cy="3" r="2"/></g>
<g transform="translate(96,528) scale(4.12)"><circle cx="3" cy="3" r="2"/></g>
<g transform="translate(120,528) scale(4.12)"><circle cx="3" cy="3" r="2"/></g>
<g transform="translate(168,528) scale(4.12)"><circle cx="3" cy="3" r="2"/></g>
<g transform="translate(192,528) scale(4.12)"><circle cx="3" cy="3" r="2"/></g>
<g transform="translate(216,528) scale(4.12)"><circle cx="3" cy="3" r="2"/></g>
<g transform="translate(312,528) scale(4.12)"><circle cx="3" cy="3" r="2"/></g>
<g transform="translate(360,528) scale(4.12)"><circle cx="3" cy="3" r="2"/></g>
<g transform="translate(384,528) scale(4.12)"><circle cx="3" cy="3" r="2"/></g>
<g transform="translate(456,528) scale(4.12)"><circle cx="3" cy="3" r="2"/></g>
<g transform="translate(480,528) scale(4.12)"><circle cx="3" cy="3" r="2"/></g>
<g transform="translate(528,528) scale(4.12)"><circle cx="3" cy="3" r="2"/></g>
<g transform="translate(576,528) scale(4.12)"><circle cx="3" cy="3" r="2"/></g>
<g transform="translate(624,528) scale(4.12)"><circle cx="3" cy="3" r="2"/></g>
<g transform="translate(696,528) scale(4.12)"><circle cx="3" cy="3" r="2"/></g>
<g transform="translate(720,528) scale(4.12)"><circle cx="3" cy="3" r="2"/></g>
<g transform="translate(744,528) scale(4.12)"><circle cx="3" cy="3" r="2"/></g>
<g transform="translate(816,528) scale(4.12)"><circle cx="3" cy="3" r="2"/></g>
<g transform="translate(48,552) scale(4.12)"><circle cx="3" cy="3" r="2"/></g>
<g transform="translate(96,552) scale(4.12)"><circle cx="3" cy="3" r="2"/></g>
<g transform="translate(144,552) scale(4.12)"><circle cx="3" cy="3" r="2"/></g>
<g transform="translate(168,552) scale(4.12)"><circle cx="3" cy="3" r="2"/></g>
<g transform="translate(216,552) scale(4.12)"><circle cx="3" cy="3" r="2"/></g>
<g transform="translate(240,552) scale(4.12)"><circle cx="3" cy="3" r="2"/></g>
<g transform="translate(264,552) scale(4.12)"><circle cx="3" cy="3" r="2"/></g>
<g transform="translate(408,552) scale(4.12)"><circle cx="3" cy="3" r="2"/></g>
<g transform="translate(432,552) scale(4.12)"><circle cx="3" cy="3" r="2"/></g>
<g transform="translate(528,552) scale(4.12)"><circle cx="3" cy="3" r="2"/></g>
<g transform="translate(744,552) scale(4.12)"><circle cx="3" cy="3" r="2"/></g>
<g transform="translate(792,552) scale(4.12)"><circle cx="3" cy="3" r="2"/></g>
<g transform="translate(816,552) scale(4.12)"><circle cx="3" cy="3" r="2"/></g>
<g transform="translate(48,576) scale(4.12)"><circle cx="3" cy="3" r="2"/></g>
<g transform="translate(96,576) scale(4.12)"><circle cx="3" cy="3" r="2"/></g>
<g transform="translate(120,576) scale(4.12)"><circle cx="3" cy="3" r="2"/></g>
<g transform="translate(144,576) scale(4.12)"><circle cx="3" cy="3" r="2"/></g>
<g transform="translate(168,576) scale(4.12)"><circle cx="3" cy="3" r="2"/></g>
<g transform="translate(192,576) scale(4.12)"><circle cx="3" cy="3" r="2"/></g>
<g transform="translate(216,576) scale(4.12)"><circle cx="3" cy="3" r="2"/></g>
<g transform="translate(264,576) scale(4.12)"><circle cx="3" cy="3" r="2"/></g>
<g transform="translate(336,576) scale(4.12)"><circle cx="3" cy="3" r="2"/></g>
<g transform="translate(384,576) scale(4.12)"><circle cx="3" cy="3" r="2"/></g>
<g transform="translate(408,576) scale(4.12)"><circle cx="3" cy="3" r="2"/></g>
<g transform="translate(480,576) scale(4.12)"><circle cx="3" cy="3" r="2"/></g>
<g transform="translate(504,576) scale(4.12)"><circle cx="3" cy="3" r="2"/></g>
<g transform="translate(528,576) scale(4.12)"><circle cx="3" cy="3" r="2"/></g>
<g transform="translate(552,576) scale(4.12)"><circle cx="3" cy="3" r="2"/></g>
<g transform="translate(600,576) scale(4.12)"><circle cx="3" cy="3" r="2"/></g>
<g transform="translate(624,576) scale(4.12)"><circle cx="3" cy="3" r="2"/></g>
<g transform="translate(48,600) scale(4.12)"><circle cx="3" cy="3" r="2"/></g>
<g transform="translate(216,600) scale(4.12)"><circle cx="3" cy="3" r="2"/></g>
<g transform="translate(264,600) scale(4.12)"><circle cx="3" cy="3" r="2"/></g>
<g transform="translate(288,600) scale(4.12)"><circle cx="3" cy="3" r="2"/></g>
<g transform="translate(312,600) scale(4.12)"><circle cx="3" cy="3" r="2"/></g>
<g transform="translate(360,600) scale(4.12)"><circle cx="3" cy="3" r="2"/></g>
<g transform="translate(480,600) scale(4.12)"><circle cx="3" cy="3" r="2"/></g>
<g transform="translate(528,600) scale(4.12)"><circle cx="3" cy="3" r="2"/></g>
<g transform="translate(552,600) scale(4.12)"><circle cx="3" cy="3" r="2"/></g>
<g transform="translate(576,600) scale(4.12)"><circle cx="3" cy="3" r="2"/></g>
<g transform="translate(600,600) scale(4.12)"><circle cx="3" cy="3" r="2"/></g>
<g transform="translate(720,600) scale(4.12)"><circle cx="3" cy="3" r="2"/></g>
<g transform="translate(744,600) scale(4.12)"><circle cx="3" cy="3" r="2"/></g>
<g transform="translate(768,600) scale(4.12)"><circle cx="3" cy="3" r="2"/></g>
<g transform="translate(816,600) scale(4.12)"><circle cx="3" cy="3" r="2"/></g>
<g transform="translate(48,624) scale(4.12)"><circle cx="3" cy="3" r="2"/></g>
<g transform="translate(168,624) scale(4.12)"><circle cx="3" cy="3" r="2"/></g>
<g transform="translate(192,624) scale(4.12)"><circle cx="3" cy="3" r="2"/></g>
<g transform="translate(216,624) scale(4.12)"><circle cx="3" cy="3" r="2"/></g>
<g transform="translate(240,624) scale(4.12)"><circle cx="3" cy="3" r="2"/></g>
<g transform="translate(312,624) scale(4.12)"><circle cx="3" cy="3" r="2"/></g>
<g transform="translate(360,624) scale(4.12)"><circle cx="3" cy="3" r="2"/></g>
<g transform="translate(384,624) scale(4.12)"><circle cx="3" cy="3" r="2"/></g>
<g transform="translate(432,624) scale(4.12)"><circle cx="3" cy="3" r="2"/></g>
<g transform="translate(456,624) scale(4.12)"><circle cx="3" cy="3" r="2"/></g>
<g transform="translate(480,624) scale(4.12)"><circle cx="3" cy="3" r="2"/></g>
<g transform="translate(528,624) scale(4.12)"><circle cx="3" cy="3" r="2"/></g>
<g transform="translate(576,624) scale(4.12)"><circle cx="3" cy="3" r="2"/></g>
<g transform="translate(600,624) scale(4.12)"><circle cx="3" cy="3" r="2"/></g>
<g transform="translate(624,624) scale(4.12)"><circle cx="3" cy="3" r="2"/></g>
<g transform="translate(648,624) scale(4.12)"><circle cx="3" cy="3" r="2"/></g>
<g transform="translate(672,624) scale(4.12)"><circle cx="3" cy="3" r="2"/></g>
<g transform="translate(696,624) scale(4.12)"><circle cx="3" cy="3" r="2"/></g>
<g transform="translate(720,624) scale(4.12)"><circle cx="3" cy="3" r="2"/></g>
<g transform="translate(240,648) scale(4.12)"><circle cx="3" cy="3" r="2"/></g>
<g transform="translate(264,648) scale(4.12)"><circle cx="3" cy="3" r="2"/></g>
<g transform="translate(288,648) scale(4.12)"><circle cx="3" cy="3" r="2"/></g>
<g transform="translate(312,648) scale(4.12)"><circle cx="3" cy="3" r="2"/></g>
<g transform="translate(336,648) scale(4.12)"><circle cx="3" cy="3" r="2"/></g>
<g transform="translate(408,648) scale(4.12)"><circle cx="3" cy="3" r="2"/></g>
<g transform="translate(432,648) scale(4.12)"><circle cx="3" cy="3" r="2"/></g>
<g transform="translate(456,648) scale(4.12)"><circle cx="3" cy="3" r="2"/></g>
<g transform="translate(504,648) scale(4.12)"><circle cx="3" cy="3" r="2"/></g>
<g transform="translate(528,648) scale(4.12)"><circle cx="3" cy="3" r="2"/></g>
<g transform="translate(552,648) scale(4.12)"><circle cx="3" cy="3" r="2"/></g>
<g transform="translate(576,648) scale(4.12)"><circle cx="3" cy="3" r="2"/></g>
<g transform="translate(624,648) scale(4.12)"><circle cx="3" cy="3" r="2"/></g>
<g transform="translate(720,648) scale(4.12)"><circle cx="3" cy="3" r="2"/></g>
<g transform="translate(744,648) scale(4.12)"><circle cx="3" cy="3" r="2"/></g>
<g transform="translate(792,648) scale(4.12)"><circle cx="3" cy="3" r="2"/></g>
<g transform="translate(816,648) scale(4.12)"><circle cx="3" cy="3" r="2"/></g>
<g transform="translate(264,672) scale(4.12)"><circle cx="3" cy="3" r="2"/></g>
<g transform="translate(288,672) scale(4.12)"><circle cx="3" cy="3" r="2"/></g>
<g transform="translate(336,672) scale(4.12)"><circle cx="3" cy="3" r="2"/></g>
<g transform="translate(384,672) scale(4.12)"><circle cx="3" cy="3" r="2"/></g>
<g transform="translate(432,672) scale(4.12)"><circle cx="3" cy="3" r="2"/></g>
<g transform="translate(456,672) scale(4.12)"><circle cx="3" cy="3" r="2"/></g>
<g transform="translate(480,672) scale(4.12)"><circle cx="3" cy="3" r="2"/></g>
<g transform="translate(528,672) scale(4.12)"><circle cx="3" cy="3" r="2"/></g>
<g transform="translate(552,672) scale(4.12)"><circle cx="3" cy="3" r="2"/></g>
<g transform="translate(624,672) scale(4.12)"><circle cx="3" cy="3" r="2"/></g>
<g transform="translate(672,672) scale(4.12)"><circle cx="3" cy="3" r="2"/></g>
<g transform="translate(720,672) scale(4.12)"><circle cx="3" cy="3" r="2"/></g>
<g transform="translate(768,672) scale(4.12)"><circle cx="3" cy="3" r="2"/></g>
<g transform="translate(792,672) scale(4.12)"><circle cx="3" cy="3" r="2"/></g>
<g transform="translate(264,696) scale(4.12)"><circle cx="3" cy="3" r="2"/></g>
<g transform="translate(288,696) scale(4.12)"><circle cx="3" cy="3" r="2"/></g>
<g transform="translate(336,696) scale(4.12)"><circle cx="3" cy="3" r="2"/></g>
<g transform="translate(360,696) scale(4.12)"><circle cx="3" cy="3" r="2"/></g>
<g transform="translate(384,696) scale(4.12)"><circle cx="3" cy="3" r="2"/></g>
<g transform="translate(456,696) scale(4.12)"><circle cx="3" cy="3" r="2"/></g>
<g transform="translate(504,696) scale(4.12)"><circle cx="3" cy="3" r="2"/></g>
<g transform="translate(528,696) scale(4.12)"><circle cx="3" cy="3" r="2"/></g>
<g transform="translate(552,696) scale(4.12)"><circle cx="3" cy="3" r="2"/></g>
<g transform="translate(576,696) scale(4.12)"><circle cx="3" cy="3" r="2"/></g>
<g transform="translate(600,696) scale(4.12)"><circle cx="3" cy="3" r="2"/></g>
<g transform="translate(624,696) scale(4.12)"><circle cx="3" cy="3" r="2"/></g>
<g transform="translate(720,696) scale(4.12)"><circle cx="3" cy="3" r="2"/></g>
<g transform="translate(744,696) scale(4.12)"><circle cx="3" cy="3" r="2"/></g>
<g transform="translate(768,696) scale(4.12)"><circle cx="3" cy="3" r="2"/></g>
<g transform="translate(792,696) scale(4.12)"><circle cx="3" cy="3" r="2"/></g>
<g transform="translate(816,696) scale(4.12)"><circle cx="3" cy="3" r="2"/></g>
<g transform="translate(240,720) scale(4.12)"><circle cx="3" cy="3" r="2"/></g>
<g transform="translate(288,720) scale(4.12)"><circle cx="3" cy="3" r="2"/></g>
<g transform="translate(312,720) scale(4.12)"><circle cx="3" cy="3" r="2"/></g>
<g transform="translate(408,720) scale(4.12)"><circle cx="3" cy="3" r="2"/></g>
<g transform="translate(432,720) scale(4.12)"><circle cx="3" cy="3" r="2"/></g>
<g transform="translate(456,720) scale(4.12)"><circle cx="3" cy="3" r="2"/></g>
<g transform="translate(480,720) scale(4.12)"><circle cx="3" cy="3" r="2"/></g>
<g transform="translate(504,720) scale(4.12)"><circle cx="3" cy="3" r="2"/></g>
<g transform="translate(528,720) scale(4.12)"><circle cx="3" cy="3" r="2"/></g>
<g transform="translate(552,720) scale(4.12)"><circle cx="3" cy="3" r="2"/></g>
<g transform="translate(624,720) scale(4.12)"><circle cx="3" cy="3" r="2"/></g>
<g transform="translate(648,720) scale(4.12)"><circle cx="3" cy="3" r="2"/></g>
<g transform="translate(672,720) scale(4.12)"><circle cx="3" cy="3" r="2"/></g>
<g transform="translate(696,720) scale(4.12)"><circle cx="3" cy="3" r="2"/></g>
<g transform="translate(720,720) scale(4.12)"><circle cx="3" cy="3" r="2"/></g>
<g transform="translate(768,720) scale(4.12)"><circle cx="3" cy="3" r="2"/></g>
<g transform="translate(792,720) scale(4.12)"><circle cx="3" cy="3" r="2"/></g>
<g transform="translate(816,720) scale(4.12)"><circle cx="3" cy="3" r="2"/></g>
<g transform="translate(240,744) scale(4.12)"><circle cx="3" cy="3" r="2"/></g>
<g transform="translate(264,744) scale(4.12)"><circle cx="3" cy="3" r="2"/></g>
<g transform="translate(288,744) scale(4.12)"><circle cx="3" cy="3" r="2"/></g>
<g transform="translate(312,744) scale(4.12)"><circle cx="3" cy="3" r="2"/></g>
<g transform="translate(336,744) scale(4.12)"><circle cx="3" cy="3" r="2"/></g>
<g transform="translate(360,744) scale(4.12)"><circle cx="3" cy="3" r="2"/></g>
<g transform="translate(384,744) scale(4.12)"><circle cx="3" cy="3" r="2"/></g>
<g transform="translate(456,744) scale(4.12)"><circle cx="3" cy="3" r="2"/></g>
<g transform="translate(528,744) scale(4.12)"><circle cx="3" cy="3" r="2"/></g>
<g transform="translate(576,744) scale(4.12)"><circle cx="3" cy="3" r="2"/></g>
<g transform="translate(624,744) scale(4.12)"><circle cx="3" cy="3" r="2"/></g>
<g transform="translate(648,744) scale(4.12)"><circle cx="3" cy="3" r="2"/></g>
<g transform="translate(720,744) scale(4.12)"><circle cx="3" cy="3" r="2"/></g>
<g transform="translate(792,744) scale(4.12)"><circle cx="3" cy="3" r="2"/></g>
<g transform="translate(240,768) scale(4.12)"><circle cx="3" cy="3" r="2"/></g>
<g transform="translate(288,768) scale(4.12)"><circle cx="3" cy="3" r="2"/></g>
<g transform="translate(312,768) scale(4.12)"><circle cx="3" cy="3" r="2"/></g>
<g transform="translate(336,768) scale(4.12)"><circle cx="3" cy="3" r="2"/></g>
<g transform="translate(360,768) scale(4.12)"><circle cx="3" cy="3" r="2"/></g>
<g transform="translate(384,768) scale(4.12)"><circle cx="3" cy="3" r="2"/></g>
<g transform="translate(456,768) scale(4.12)"><circle cx="3" cy="3" r="2"/></g>
<g transform="translate(504,768) scale(4.12)"><circle cx="3" cy="3" r="2"/></g>
<g transform="translate(528,768) scale(4.12)"><circle cx="3" cy="3" r="2"/></g>
<g transform="translate(552,768) scale(4.12)"><circle cx="3" cy="3" r="2"/></g>
<g transform="translate(600,768) scale(4.12)"><circle cx="3" cy="3" r="2"/></g>
<g transform="translate(648,768) scale(4.12)"><circle cx="3" cy="3" r="2"/></g>
<g transform="translate(672,768) scale(4.12)"><circle cx="3" cy="3" r="2"/></g>
<g transform="translate(288,792) scale(4.12)"><circle cx="3" cy="3" r="2"/></g>
<g transform="translate(408,792) scale(4.12)"><circle cx="3" cy="3" r="2"/></g>
<g transform="translate(432,792) scale(4.12)"><circle cx="3" cy="3" r="2"/></g>
<g transform="translate(456,792) scale(4.12)"><circle cx="3" cy="3" r="2"/></g>
<g transform="translate(504,792) scale(4.12)"><circle cx="3" cy="3" r="2"/></g>
<g transform="translate(528,792) scale(4.12)"><circle cx="3" cy="3" r="2"/></g>
<g transform="translate(552,792) scale(4.12)"><circle cx="3" cy="3" r="2"/></g>
<g transform="translate(648,792) scale(4.12)"><circle cx="3" cy="3" r="2"/></g>
<g transform="translate(672,792) scale(4.12)"><circle cx="3" cy="3" r="2"/></g>
<g transform="translate(696,792) scale(4.12)"><circle cx="3" cy="3" r="2"/></g>
<g transform="translate(744,792) scale(4.12)"><circle cx="3" cy="3" r="2"/></g>
<g transform="translate(768,792) scale(4.12)"><circle cx="3" cy="3" r="2"/></g>
<g transform="translate(336,816) scale(4.12)"><circle cx="3" cy="3" r="2"/></g>
<g transform="translate(360,816) scale(4.12)"><circle cx="3" cy="3" r="2"/></g>
<g transform="translate(432,816) scale(4.12)"><circle cx="3" cy="3" r="2"/></g>
<g transform="translate(456,816) scale(4.12)"><circle cx="3" cy="3" r="2"/></g>
<g transform="translate(504,816) scale(4.12)"><circle cx="3" cy="3" r="2"/></g>
<g transform="translate(552,816) scale(4.12)"><circle cx="3" cy="3" r="2"/></g>
<g transform="translate(624,816) scale(4.12)"><circle cx="3" cy="3" r="2"/></g>
<g transform="translate(648,816) scale(4.12)"><circle cx="3" cy="3" r="2"/></g>
<g transform="translate(672,816) scale(4.12)"><circle cx="3" cy="3" r="2"/></g>
<g transform="translate(792,816) scale(4.12)"><circle cx="3" cy="3" r="2"/></g>
<g transform="translate(48,48)"><g transform="scale(12)"><path d="M4.5,14h5.1C12,14,14,12,14,9.6V4.5C14,2,12,0,9.5,0H4.4C2,0,0,2,0,4.4v5.1C0,12,2,14,4.5,14z M12,4.8v4.4 c0,1.5-1.3,2.8-2.8,2.8H4.8C3.2,12,2,10.8,2,9.2V4.8C2,3.3,3.3,2,4.8,2h4.4C10.8,2,12,3.2,12,4.8z"/></g></g>
<g transform="translate(672,48)"><g transform="scale(12)"><path d="M4.5,14h5.1C12,14,14,12,14,9.6V4.5C14,2,12,0,9.5,0H4.4C2,0,0,2,0,4.4v5.1C0,12,2,14,4.5,14z M12,4.8v4.4 c0,1.5-1.3,2.8-2.8,2.8H4.8C3.2,12,2,10.8,2,9.2V4.8C2,3.3,3.3,2,4.8,2h4.4C10.8,2,12,3.2,12,4.8z"/></g></g>
<g transform="translate(48,672)"><g transform="scale(12)"><path d="M4.5,14h5.1C12,14,14,12,14,9.6V4.5C14,2,12,0,9.5,0H4.4C2,0,0,2,0,4.4v5.1C0,12,2,14,4.5,14z M12,4.8v4.4 c0,1.5-1.3,2.8-2.8,2.8H4.8C3.2,12,2,10.8,2,9.2V4.8C2,3.3,3.3,2,4.8,2h4.4C10.8,2,12,3.2,12,4.8z"/></g></g>
<g transform="translate(96,96)"><g transform="scale(12)"><circle cx="3" cy="3" r="3"/></g></g>
<g transform="translate(720,96)"><g transform="scale(12)"><circle cx="3" cy="3" r="3"/></g></g>
<g transform="translate(96,720)"><g transform="scale(12)"><circle cx="3" cy="3" r="3"/></g></g>
</g></svg>
