<?xml version="1.0" encoding="utf-8"?>
<svg xmlns="http://www.w3.org/2000/svg" xmlns:xlink="http://www.w3.org/1999/xlink" xml:space="preserve" width="984" height="984" viewBox="0 0 984 984"><rect width="984" height="984" fill="#ffffff" x="0" y="0"/><g fill="#000000">
<g transform="translate(240,48) scale(4.12)"><circle cx="3" cy="3" r="2"/></g>
<g transform="translate(264,48) scale(4.12)"><circle cx="3" cy="3" r="2"/></g>
<g transform="translate(288,48) scale(4.12)"><circle cx="3" cy="3" r="2"/></g>
<g transform="translate(312,48) scale(4.12)"><circle cx="3" cy="3" r="2"/></g>
<g transform="translate(336,48) scale(4.12)"><circle cx="3" cy="3" r="2"/></g>
<g transform="translate(408,48) scale(4.12)"><circle cx="3" cy="3" r="2"/></g>
<g transform="translate(432,48) scale(4.12)"><circle cx="3" cy="3" r="2"/></g>
<g transform="translate(528,48) scale(4.12)"><circle cx="3" cy="3" r="2"/></g>
<g transform="translate(576,48) scale(4.12)"><circle cx="3" cy="3" r="2"/></g>
<g transform="translate(624,48) scale(4.12)"><circle cx="3" cy="3" r="2"/></g>
<g transform="translate(240,72) scale(4.12)"><circle cx="3" cy="3" r="2"/></g>
<g transform="translate(288,72) scale(4.12)"><circle cx="3" cy="3" r="2"/></g>
<g transform="translate(312,72) scale(4.12)"><circle cx="3" cy="3" r="2"/></g>
<g transform="translate(408,72) scale(4.12)"><circle cx="3" cy="3" r="2"/></g>
<g transform="translate(432,72) scale(4.12)"><circle cx="3" cy="3" r="2"/></g>
<g transform="translate(480,72) scale(4.12)"><circle cx="3" cy="3" r="2"/></g>
<g transform="translate(504,72) scale(4.12)"><circle cx="3" cy="3" r="2"/></g>
<g transform="translate(528,72) scale(4.12)"><circle cx="3" cy="3" r="2"/></g>
<g transform="translate(576,72) scale(4.12)"><circle cx="3" cy="3" r="2"/></g>
<g transform="translate(600,72) scale(4.12)"><circle cx="3" cy="3" r="2"/></g>
<g transform="translate(624,72) scale(4.12)"><circle cx="3" cy="3" r="2"/></g>
<g transform="translate(648,72) scale(4.12)"><circle cx="3" cy="3" r="2"/></g>
<g transform="translate(696,72) scale(4.12)"><circle cx="3" cy="3" r="2"/></g>
<g transform="translate(720,72) scale(4.12)"><circle cx="3" cy="3" r="2"/></g>
<g transform="translate(240,96) scale(4.12)"><circle cx="3" cy="3" r="2"/></g>
<g transform="translate(360,96) scale(4.12)"><circle cx="3" cy="3" r="2"/></g>
<g transform="translate(504,96) scale(4.12)"><circle cx="3" cy="3" r="2"/></g>
<g transform="translate(552,96) scale(4.12)"><circle cx="3" cy="3" r="2"/></g>
<g transform="translate(624,96) scale(4.12)"><circle cx="3" cy="3" r="2"/></g>
<g transform="translate(672,96) scale(4.12)"><circle cx="3" cy="3" r="2"/></g>
<g transform="translate(720,96) scale(4.12)"><circle cx="3" cy="3" r="2"/></g>
<g transform="translate(264,120) scale(4.12)"><circle cx="3" cy="3" r="2"/></g>
<g transform="translate(288,120) scale(4.12)"><circle cx="3" cy="3" r="2"/></g>
<g transform="translate(312,120) scale(4.12)"><circle cx="3" cy="3" r="2"/></g>
<g transform="translate(360,120) scale(4.12)"><circle cx="3" cy="3" r="2"/></g>
<g transform="translate(384,120) scale(4.12)"><circle cx="3" cy="3" r="2"/></g>
<g transform="translate(432,120) scale(4.12)"><circle cx="3" cy="3" r="2"/></g>
<g transform="translate(504,120) scale(4.12)"><circle cx="3" cy="3" r="2"/></g>
<g transform="translate(552,120) scale(4.12)"><circle cx="3" cy="3" r="2"/></g>
<g transform="translate(624,120) scale(4.12)"><circle cx="3" cy="3" r="2"/></g>
<g transform="translate(648,120) scale(4.12)"><circle cx="3" cy="3" r="2"/></g>
<g transform="translate(672,120) scale(4.12)"><circle cx="3" cy="3" r="2"/></g>
<g transform="translate(288,144) scale(4.12)"><circle cx="3" cy="3" r="2"/></g>
<g transform="translate(312,144) scale(4.12)"><circle cx="3" cy="3" r="2"/></g>
<g transform="translate(360,144) scale(4.12)"><circle cx="3" cy="3" r="2"/></g>
<g transform="translate(456,144) scale(4.12)"><circle cx="3" cy="3" r="2"/></g>
<g transform="translate(504,144) scale(4.12)"><circle cx="3" cy="3" r="2"/></g>
<g transform="translate(528,144) scale(4.12)"><circle cx="3" cy="3" r="2"/></g>
<g transform="translate(552,144) scale(4.12)"><circle cx="3" cy="3" r="2"/></g>
<g transform="translate(576,144) scale(4.12)"><circle cx="3" cy="3" r="2"/></g>
<g transform="translate(600,144) scale(4.12)"><circle cx="3" cy="3" r="2"/></g>
<g transform="translate(240,168) scale(4.12)"><circle cx="3" cy="3" r="2"/></g>
<g transform="translate(336,168) scale(4.12)"><circle cx="3" cy="3" r="2"/></g>
<g transform="translate(360,168) scale(4.12)"><circle cx="3" cy="3" r="2"/></g>
<g transform="translate(408,168) scale(4.12)"><circle cx="3" cy="3" r="2"/></g>
<g transform="translate(480,168) scale(4.12)"><circle cx="3" cy="3" r="2"/></g>
<g transform="translate(504,168) scale(4.12)"><circle cx="3" cy="3" r="2"/></g>
<g transform="translate(600,168) scale(4.12)"><circle cx="3" cy="3" r="2"/></g>
<g transform="translate(696,168) scale(4.12)"><circle cx="3" cy="3" r="2"/></g>
<g transform="translate(720,168) scale(4.12)"><circle cx="3" cy="3" r="2"/></g>
<g transform="translate(240,192) scale(4.12)"><circle cx="3" cy="3" r="2"/></g>
<g transform="translate(288,192) scale(4.12)"><circle cx="3" cy="3" r="2"/></g>
<g transform="translate(336,192) scale(4.12)"><circle cx="3" cy="3" r="2"/></g>
<g transform="translate(384,192) scale(4.12)"><circle cx="3" cy="3" r="2"/></g>
<g transform="translate(432,192) scale(4.12)"><circle cx="3" cy="3" r="2"/></g>
<g transform="translate(480,192) scale(4.12)"><circle cx="3" cy="3" r="2"/></g>
<g transform="translate(528,192) scale(4.12)"><circle cx="3" cy="3" r="2"/></g>
<g transform="translate(576,192) scale(4.12)"><circle cx="3" cy="3" r="2"/></g>
<g transform="translate(624,192) scale(4.12)"><circle cx="3" cy="3" r="2"/></g>
<g transform="translate(672,192) scale(4.12)"><circle cx="3" cy="3" r="2"/></g>
<g transform="translate(720,192) scale(4.12)"><circle cx="3" cy="3" r="2"/></g>
<g transform="translate(240,216) scale(4.12)"><circle cx="3" cy="3" r="2"/></g>
<g transform="translate(264,216) scale(4.12)"><circle cx="3" cy="3" r="2"/></g>
<g transform="translate(360,216) scale(4.12)"><circle cx="3" cy="3" r="2"/></g>
<g transform="translate(408,216) scale(4.12)"><circle cx="3" cy="3" r="2"/></g>
<g transform="translate(456,216) scale(4.12)"><circle cx="3" cy="3" r="2"/></g>
<g transform="translate(528,216) scale(4.12)"><circle cx="3" cy="3" r="2"/></g>
<g transform="translate(576,216) scale(4.12)"><circle cx="3" cy="3" r="2"/></g>
<g transform="translate(600,216) scale(4.12)"><circle cx="3" cy="3" r="2"/></g>
<g transform="translate(624,216) scale(4.12)"><circle cx="3" cy="3" r="2"/></g>
<g transform="translate(672,216) scale(4.12)"><circle cx="3" cy="3" r="2"/></g>
<g transform="translate(720,216) scale(4.12)"><circle cx="3" cy="3" r="2"/></g>
<g transform="translate(96,240) scale(4.12)"><circle cx="3" cy="3" r="2"/></g>
<g transform="translate(120,240) scale(4.12)"><circle cx="3" cy="3" r="2"/></g>
<g transform="translate(144,240) scale(4.12)"><circle cx="3" cy="3" r="2"/></g>
<g transform="translate(192,240) scale(4.12)"><circle cx="3" cy="3" r="2"/></g>
<g transform="translate(240,240) scale(4.12)"><circle cx="3" cy="3" r="2"/></g>
<g transform="translate(264,240) scale(4.12)"><circle cx="3" cy="3" r="2"/></g>
<g transform="translate(408,240) scale(4.12)"><circle cx="3" cy="3" r="2"/></g>
<g transform="translate(480,240) scale(4.12)"><circle cx="3" cy="3" r="2"/></g>
<g transform="translate(528,240) scale(4.12)"><circle cx="3" cy="3" r="2"/></g>
<g transform="translate(576,240) scale(4.12)"><circle cx="3" cy="3" r="2"/></g>
<g transform="translate(600,240) scale(4.12)"><circle cx="3" cy="3" r="2"/></g>
<g transform="translate(744,240) scale(4.12)"><circle cx="3" cy="3" r="2"/></g>
<g transform="translate(768,240) scale(4.12)"><circle cx="3" cy="3" r="2"/></g>
<g transform="translate(792,240) scale(4.12)"><circle cx="3" cy="3" r="2"/></g>
<g transform="translate(864,240) scale(4.12)"><circle cx="3" cy="3" r="2"/></g>
<g transform="translate(888,240) scale(4.12)"><circle cx="3" cy="3" r="2"/></g>
<g transform="translate(912,240) scale(4.12)"><circle cx="3" cy="3" r="2"/></g>
<g transform="translate(48,264) scale(4.12)"><circle cx="3" cy="3" r="2"/></g>
<g transform="translate(72,264) scale(4.12)"><circle cx="3" cy="3" r="2"/></g>
<g transform="translate(120,264) scale(4.12)"><circle cx="3" cy="3" r="2"/></g>
<g transform="translate(168,264) scale(4.12)"><circle cx="3" cy="3" r="2"/></g>
<g transform="translate(216,264) scale(4.12)"><circle cx="3" cy="3" r="2"/></g>
<g transform="translate(264,264) scale(4.12)"><circle cx="3" cy="3" r="2"/></g>
<g transform="translate(288,264) scale(4.12)"><circle cx="3" cy="3" r="2"/></g>
<g transform="translate(312,264) scale(4.12)"><circle cx="3" cy="3" r="2"/></g>
<g transform="translate(360,264) scale(4.12)"><circle cx="3" cy="3" r="2"/></g>
<g transform="translate(456,264) scale(4.12)"><circle cx="3" cy="3" r="2"/></g>
<g transform="translate(480,264) scale(4.12)"><circle cx="3" cy="3" r="2"/></g>
<g transform="translate(552,264) scale(4.12)"><circle cx="3" cy="3" r="2"/></g>
<g transform="translate(576,264) scale(4.12)"><circle cx="3" cy="3" r="2"/></g>
<g transform="translate(624,264) scale(4.12)"><circle cx="3" cy="3" r="2"/></g>
<g transform="translate(648,264) scale(4.12)"><circle cx="3" cy="3" r="2"/></g>
<g transform="translate(672,264) scale(4.12)"><circle cx="3" cy="3" r="2"/></g>
<g transform="translate(696,264) scale(4.12)"><circle cx="3" cy="3" r="2"/></g>
<g transform="translate(720,264) scale(4.12)"><circle cx="3" cy="3" r="2"/></g>
<g transform="translate(792,264) scale(4.12)"><circle cx="3" cy="3" r="2"/></g>
<g transform="translate(888,264) scale(4.12)"><circle cx="3" cy="3" r="2"/></g>
<g transform="translate(72,288) scale(4.12)"><circle cx="3" cy="3" r="2"/></g>
<g transform="translate(144,288) scale(4.12)"><circle cx="3" cy="3" r="2"/></g>
<g transform="translate(192,288) scale(4.12)"><circle cx="3" cy="3" r="2"/></g>
<g transform="translate(216,288) scale(4.12)"><circle cx="3" cy="3" r="2"/></g>
<g transform="translate(240,288) scale(4.12)"><circle cx="3" cy="3" r="2"/></g>
<g transform="translate(312,288) scale(4.12)"><circle cx="3" cy="3" r="2"/></g>
<g transform="translate(336,288) scale(4.12)"><circle cx="3" cy="3" r="2"/></g>
<g transform="translate(384,288) scale(4.12)"><circle cx="3" cy="3" r="2"/></g>
<g transform="translate(432,288) scale(4.12)"><circle cx="3" cy="3" r="2"/></g>
<g transform="translate(456,288) scale(4.12)"><circle cx="3" cy="3" r="2"/></g>
<g transform="translate(552,288) scale(4.12)"><circle cx="3" cy="3" r="2"/></g>
<g transform="translate(576,288) scale(4.12)"><circle cx="3" cy="3" r="2"/></g>
<g transform="translate(648,288) scale(4.12)"><circle cx="3" cy="3" r="2"/></g>
<g transform="translate(672,288) scale(4.12)"><circle cx="3" cy="3" r="2"/></g>
<g transform="translate(768,288) scale(4.12)"><circle cx="3" cy="3" r="2"/></g>
<g transform="translate(840,288) scale(4.12)"><circle cx="3" cy="3" r="2"/></g>
<g transform="translate(888,288) scale(4.12)"><circle cx="3" cy="3" r="2"/></g>
<g transform="translate(912,288) scale(4.12)"><circle cx="3" cy="3" r="2"/></g>
<g transform="translate(72,312) scale(4.12)"><circle cx="3" cy="3" r="2"/></g>
<g transform="translate(168,312) scale(4.12)"><circle cx="3" cy="3" r="2"/></g>
<g transform="translate(240,312) scale(4.12)"><circle cx="3" cy="3" r="2"/></g>
<g transform="translate(264,312) scale(4.12)"><circle cx="3" cy="3" r="2"/></g>
<g transform="translate(288,312) scale(4.12)"><circle cx="3" cy="3" r="2"/></g>
<g transform="translate(360,312) scale(4.12)"><circle cx="3" cy="3" r="2"/></g>
<g transform="translate(384,312) scale(4.12)"><circle cx="3" cy="3" r="2"/></g>
<g transform="translate(432,312) scale(4.12)"><circle cx="3" cy="3" r="2"/></g>
<g transform="translate(480,312) scale(4.12)"><circle cx="3" cy="3" r="2"/></g>
<g transform="translate(672,312) scale(4.12)"><circle cx="3" cy="3" r="2"/></g>
<g transform="translate(720,312) scale(4.12)"><circle cx="3" cy="3" r="2"/></g>
<g transform="translate(768,312) scale(4.12)"><circle cx="3" cy="3" r="2"/></g>
<g transform="translate(792,312) scale(4.12)"><circle cx="3" cy="3" r="2"/></g>
<g transform="translate(816,312) scale(4.12)"><circle cx="3" cy="3" r="2"/></g>
<g transform="translate(72,336) scale(4.12)"><circle cx="3" cy="3" r="2"/></g>
<g transform="translate(96,336) scale(4.12)"><circle cx="3" cy="3" r="2"/></g>
<g transform="translate(168,336) scale(4.12)"><circle cx="3" cy="3" r="2"/></g>
<g transform="translate(192,336) scale(4.12)"><circle cx="3" cy="3" r="2"/></g>
<g transform="translate(288,336) scale(4.12)"><circle cx="3" cy="3" r="2"/></g>
<g transform="translate(336,336) scale(4.12)"><circle cx="3" cy="3" r="2"/></g>
<g transform="translate(384,336) scale(4.12)"><circle cx="3" cy="3" r="2"/></g>
<g transform="translate(504,336) scale(4.12)"><circle cx="3" cy="3" r="2"/></g>
<g transform="translate(552,336) scale(4.12)"><circle cx="3" cy="3" r="2"/></g>
<g transform="translate(648,336) scale(4.12)"><circle cx="3" cy="3" r="2"/></g>
<g transform="translate(672,336) scale(4.12)"><circle cx="3" cy="3" r="2"/></g>
<g transform="translate(744,336) scale(4.12)"><circle cx="3" cy="3" r="2"/></g>
<g transform="translate(768,336) scale(4.12)"><circle cx="3" cy="3" r="2"/></g>
<g transform="translate(792,336) scale(4.12)"><circle cx="3" cy="3" r="2"/></g>
<g transform="translate(816,336) scale(4.12)"><circle cx="3" cy="3" r="2"/></g>
<g transform="translate(840,336) scale(4.12)"><circle cx="3" cy="3" r="2"/></g>
<g transform="translate(864,336) scale(4.12)"><circle cx="3" cy="3" r="2"/></g>
<g transform="translate(888,336) scale(4.12)"><circle cx="3" cy="3" r="2"/></g>
<g transform="translate(48,360) scale(4.12)"><circle cx="3" cy="3" r="2"/></g>
<g transform="translate(96,360) scale(4.12)"><circle cx="3" cy="3" r="2"/></g>
<g transform="translate(144,360) scale(4.12)"><circle cx="3" cy="3" r="2"/></g>
<g transform="translate(264,360) scale(4.12)"><circle cx="3" cy="3" r="2"/></g>
<g transform="translate(288,360) scale(4.12)"><circle cx="3" cy="3" r="2"/></g>
<g transform="translate(312,360) scale(4.12)"><circle cx="3" cy="3" r="2"/></g>
<g transform="translate(360,360) scale(4.12)"><circle cx="3" cy="3" r="2"/></g>
<g transform="translate(384,360) scale(4.12)"><circle cx="3" cy="3" r="2"/></g>
<g transform="translate(432,360) scale(4.12)"><circle cx="3" cy="3" r="2"/></g>
<g transform="translate(456,360) scale(4.12)"><circle cx="3" cy="3" r="2"/></g>
<g transform="translate(504,360) scale(4.12)"><circle cx="3" cy="3" r="2"/></g>
<g transform="translate(528,360) scale(4.12)"><circle cx="3" cy="3" r="2"/></g>
<g transform="translate(552,360) scale(4.12)"><circle cx="3" cy="3" r="2"/></g>
<g transform="translate(600,360) scale(4.12)"><circle cx="3" cy="3" r="2"/></g>
<g transform="translate(648,360) scale(4.12)"><circle cx="3" cy="3" r="2"/></g>
<g transform="translate(720,360) scale(4.12)"><circle cx="3" cy="3" r="2"/></g>
<g transform="translate(744,360) scale(4.12)"><circle cx="3" cy="3" r="2"/></g>
<g transform="translate(792,360) scale(4.12)"><circle cx="3" cy="3" r="2"/></g>
<g transform="translate(840,360) scale(4.12)"><circle cx="3" cy="3" r="2"/></g>
<g transform="translate(864,360) scale(4.12)"><circle cx="3" cy="3" r="2"/></g>
<g transform="translate(72,384) scale(4.12)"><circle cx="3" cy="3" r="2"/></g>
<g transform="translate(96,384) scale(4.12)"><circle cx="3" cy="3" r="2"/></g>
<g transform="translate(120,384) scale(4.12)"><circle cx="3" cy="3" r="2"/></g>
<g transform="translate(168,384) scale(4.12)"><circle cx="3" cy="3" r="2"/></g>
<g transform="translate(192,384) scale(4.12)"><circle cx="3" cy="3" r="2"/></g>
<g transform="translate(264,384) scale(4.12)"><circle cx="3" cy="3" r="2"/></g>
<g transform="translate(384,384) scale(4.12)"><circle cx="3" cy="3" r="2"/></g>
<g transform="translate(456,384) scale(4.12)"><circle cx="3" cy="3" r="2"/></g>
<g transform="translate(576,384) scale(4.12)"><circle cx="3" cy="3" r="2"/></g>
<g transform="translate(624,384) scale(4.12)"><circle cx="3" cy="3" r="2"/></g>
<g transform="translate(648,384) scale(4.12)"><circle cx="3" cy="3" r="2"/></g>
<g transform="translate(672,384) scale(4.12)"><circle cx="3" cy="3" r="2"/></g>
<g transform="translate(696,384) scale(4.12)"><circle cx="3" cy="3" r="2"/></g>
<g transform="translate(720,384) scale(4.12)"><circle cx="3" cy="3" r="2"/></g>
<g transform="translate(744,384) scale(4.12)"><circle cx="3" cy="3" r="2"/></g>
<g transform="translate(792,384) scale(4.12)"><circle cx="3" cy="3" r="2"/></g>
<g transform="translate(840,384) scale(4.12)"><circle cx="3" cy="3" r="2"/></g>
<g transform="translate(888,384) scale(4.12)"><circle cx="3" cy="3" r="2"/></g>
<g transform="translate(912,384) scale(4.12)"><circle cx="3" cy="3" r="2"/></g>
<g transform="translate(48,408) scale(4.12)"><circle cx="3" cy="3" r="2"/></g>
<g transform="translate(72,408) scale(4.12)"><circle cx="3" cy="3" r="2"/></g>
<g transform="translate(96,408) scale(4.12)"><circle cx="3" cy="3" r="2"/></g>
<g transform="translate(144,408) scale(4.12)"><circle cx="3" cy="3" r="2"/></g>
<g transform="translate(216,408) scale(4.12)"><circle cx="3" cy="3" r="2"/></g>
<g transform="translate(264,408) scale(4.12)"><circle cx="3" cy="3" r="2"/></g>
<g transform="translate(360,408) scale(4.12)"><circle cx="3" cy="3" r="2"/></g>
<g transform="translate(480,408) scale(4.12)"><circle cx="3" cy="3" r="2"/></g>
<g transform="translate(528,408) scale(4.12)"><circle cx="3" cy="3" r="2"/></g>
<g transform="translate(624,408) scale(4.12)"><circle cx="3" cy="3" r="2"/></g>
<g transform="translate(672,408) scale(4.12)"><circle cx="3" cy="3" r="2"/></g>
<g transform="translate(744,408) scale(4.12)"><circle cx="3" cy="3" r="2"/></g>
<g transform="translate(792,408) scale(4.12)"><circle cx="3" cy="3" r="2"/></g>
<g transform="translate(816,408) scale(4.12)"><circle cx="3" cy="3" r="2"/></g>
<g transform="translate(912,408) scale(4.12)"><circle cx="3" cy="3" r="2"/></g>
<g transform="translate(48,432) scale(4.12)"><circle cx="3" cy="3" r="2"/></g>
<g transform="translate(96,432) scale(4.12)"><circle cx="3" cy="3" r="2"/></g>
<g transform="translate(192,432) scale(4.12)"><circle cx="3" cy="3" r="2"/></g>
<g transform="translate(216,432) scale(4.12)"><circle cx="3" cy="3" r="2"/></g>
<g transform="translate(240,432) scale(4.12)"><circle cx="3" cy="3" r="2"/></g>
<g transform="translate(288,432) scale(4.12)"><circle cx="3" cy="3" r="2"/></g>
<g transform="translate(336,432) scale(4.12)"><circle cx="3" cy="3" r="2"/></g>
<g transform="translate(360,432) scale(4.12)"><circle cx="3" cy="3" r="2"/></g>
<g transform="translate(384,432) scale(4.12)"><circle cx="3" cy="3" r="2"/></g>
<g transform="translate(408,432) scale(4.12)"><circle cx="3" cy="3" r="2"/></g>
<g transform="translate(432,432) scale(4.12)"><circle cx="3" cy="3" r="2"/></g>
<g transform="translate(480,432) scale(4.12)"><circle cx="3" cy="3" r="2"/></g>
<g transform="translate(504,432) scale(4.12)"><circle cx="3" cy="3" r="2"/></g>
<g transform="translate(528,432) scale(4.12)"><circle cx="3" cy="3" r="2"/></g>
<g transform="translate(576,432) scale(4.12)"><circle cx="3" cy="3" r="2"/></g>
<g transform="translate(624,432) scale(4.12)"><circle cx="3" cy="3" r="2"/></g>
<g transform="translate(648,432) scale(4.12)"><circle cx="3" cy="3" r="2"/></g>
<g transform="translate(672,432) scale(4.12)"><circle cx="3" cy="3" r="2"/></g>
<g transform="translate(696,432) scale(4.12)"><circle cx="3" cy="3" r="2"/></g>
<g transform="translate(768,432) scale(4.12)"><circle cx="3" cy="3" r="2"/></g>
<g transform="translate(816,432) scale(4.12)"><circle cx="3" cy="3" r="2"/></g>
<g transform="translate(864,432) scale(4.12)"><circle cx="3" cy="3" r="2"/></g>
<g transform="translate(888,432) scale(4.12)"><circle cx="3" cy="3" r="2"/></g>
<g transform="translate(48,456) scale(4.12)"><circle cx="3" cy="3" r="2"/></g>
<g transform="translate(72,456) scale(4.12)"><circle cx="3" cy="3" r="2"/></g>
<g transform="translate(96,456) scale(4.12)"><circle cx="3" cy="3" r="2"/></g>
<g transform="translate(120,456) scale(4.12)"><circle cx="3" cy="3" r="2"/></g>
<g transform="translate(144,456) scale(4.12)"><circle cx="3" cy="3" r="2"/></g>
<g transform="translate(168,456) scale(4.12)"><circle cx="3" cy="3" r="2"/></g>
<g transform="translate(216,456) scale(4.12)"><circle cx="3" cy="3" r="2"/></g>
<g transform="translate(288,456) scale(4.12)"><circle cx="3" cy="3" r="2"/></g>
<g transform="translate(432,456) scale(4.12)"><circle cx="3" cy="3" r="2"/></g>
<g transform="translate(456,456) scale(4.12)"><circle cx="3" cy="3" r="2"/></g>
<g transform="translate(480,456) scale(4.12)"><circle cx="3" cy="3" r="2"/></g>
<g transform="translate(576,456) scale(4.12)"><circle cx="3" cy="3" r="2"/></g>
<g transform="translate(600,456) scale(4.12)"><circle cx="3" cy="3" r="2"/></g>
<g transform="translate(720,456) scale(4.12)"><circle cx="3" cy="3" r="2"/></g>
<g transform="translate(792,456) scale(4.12)"><circle cx="3" cy="3" r="2"/></g>
<g transform="translate(840,456) scale(4.12)"><circle cx="3" cy="3" r="2"/></g>
<g transform="translate(864,456) scale(4.12)"><circle cx="3" cy="3" r="2"/></g>
<g transform="translate(48,480) scale(4.12)"><circle cx="3" cy="3" r="2"/></g>
<g transform="translate(72,480) scale(4.12)"><circle cx="3" cy="3" r="2"/></g>
<g transform="translate(144,480) scale(4.12)"><circle cx="3" cy="3" r="2"/></g>
<g transform="translate(192,480) scale(4.12)"><circle cx="3" cy="3" r="2"/></g>
<g transform="translate(240,480) scale(4.12)"><circle cx="3" cy="3" r="2"/></g>
<g transform="translate(288,480) scale(4.12)"><circle cx="3" cy="3" r="2"/></g>
<g transform="translate(384,480) scale(4.12)"><circle cx="3" cy="3" r="2"/></g>
<g transform="translate(432,480) scale(4.12)"><circle cx="3" cy="3" r="2"/></g>
<g transform="translate(456,480) scale(4.12)"><circle cx="3" cy="3" r="2"/></g>
<g transform="translate(480,480) scale(4.12)"><circle cx="3" cy="3" r="2"/></g>
<g transform="translate(528,480) scale(4.12)"><circle cx="3" cy="3" r="2"/></g>
<g transform="translate(576,480) scale(4.12)"><circle cx="3" cy="3" r="2"/></g>
<g transform="translate(600,480) scale(4.12)"><circle cx="3" cy="3" r="2"/></g>
<g transform="translate(624,480) scale(4.12)"><circle cx="3" cy="3" r="2"/></g>
<g transform="translate(696,480) scale(4.12)"><circle cx="3" cy="3" r="2"/></g>
<g transform="translate(720,480) scale(4.12)"><circle cx="3" cy="3" r="2"/></g>
<g transform="translate(768,480) scale(4.12)"><circle cx="3" cy="3" r="2"/></g>
<g transform="translate(888,480) scale(4.12)"><circle cx="3" cy="3" r="2"/></g>
<g transform="translate(912,480) scale(4.12)"><circle cx="3" cy="3" r="2"/></g>
<g transform="translate(48,504) scale(4.12)"><circle cx="3" cy="3" r="2"/></g>
<g transform="translate(72,504) scale(4.12)"><circle cx="3" cy="3" r="2"/></g>
<g transform="translate(96,504) scale(4.12)"><circle cx="3" cy="3" r="2"/></g>
<g transform="translate(120,504) scale(4.12)"><circle cx="3" cy="3" r="2"/></g>
<g transform="translate(168,504) scale(4.12)"><circle cx="3" cy="3" r="2"/></g>
<g transform="translate(216,504) scale(4.12)"><circle cx="3" cy="3" r="2"/></g>
<g transform="translate(240,504) scale(4.12)"><circle cx="3" cy="3" r="2"/></g>
<g transform="translate(264,504) scale(4.12)"><circle cx="3" cy="3" r="2"/></g>
<g transform="translate(336,504) scale(4.12)"><circle cx="3" cy="3" r="2"/></g>
<g transform="translate(360,504) scale(4.12)"><circle cx="3" cy="3" r="2"/></g>
<g transform="translate(408,504) scale(4.12)"><circle cx="3" cy="3" r="2"/></g>
<g transform="translate(456,504) scale(4.12)"><circle cx="3" cy="3" r="2"/></g>
<g transform="translate(504,504) scale(4.12)"><circle cx="3" cy="3" r="2"/></g>
<g transform="translate(528,504) scale(4.12)"><circle cx="3" cy="3" r="2"/></g>
<g transform="translate(672,504) scale(4.12)"><circle cx="3" cy="3" r="2"/></g>
<g transform="translate(696,504) scale(4.12)"><circle cx="3" cy="3" r="2"/></g>
<g transform="translate(744,504) scale(4.12)"><circle cx="3" cy="3" r="2"/></g>
<g transform="translate(888,504) scale(4.12)"><circle cx="3" cy="3" r="2"/></g>
<g transform="translate(72,528) scale(4.12)"><circle cx="3" cy="3" r="2"/></g>
<g transform="translate(120,528) scale(4.12)"><circle cx="3" cy="3" r="2"/></g>
<g transform="translate(144,528) scale(4.12)"><circle cx="3" cy="3" r="2"/></g>
<g transform="translate(192,528) scale(4.12)"><circle cx="3" cy="3" r="2"/></g>
<g transform="translate(240,528) scale(4.12)"><circle cx="3" cy="3" r="2"/></g>
<g transform="translate(288,528) scale(4.12)"><circle cx="3" cy="3" r="2"/></g>
<g transform="translate(336,528) scale(4.12)"><circle cx="3" cy="3" r="2"/></g>
<g transform="translate(360,528) scale(4.12)"><circle cx="3" cy="3" r="2"/></g>
<g transform="translate(384,528) scale(4.12)"><circle cx="3" cy="3" r="2"/></g>
<g transform="translate(408,528) scale(4.12)"><circle cx="3" cy="3" r="2"/></g>
<g transform="translate(432,528) scale(4.12)"><circle cx="3" cy="3" r="2"/></g>
<g transform="translate(504,528) scale(4.12)"><circle cx="3" cy="3" r="2"/></g>
<g transform="translate(528,528) scale(4.12)"><circle cx="3" cy="3" r="2"/></g>
<g transform="translate(576,528) scale(4.12)"><circle cx="3" cy="3" r="2"/></g>
<g transform="translate(624,528) scale(4.12)"><circle cx="3" cy="3" r="2"/></g>
<g transform="translate(648,528) scale(4.12)"><circle cx="3" cy="3" r="2"/></g>
<g transform="translate(672,528) scale(4.12)"><circle cx="3" cy="3" r="2"/></g>
<g transform="translate(744,528) scale(4.12)"><circle cx="3" cy="3" r="2"/></g>
<g transform="translate(768,528) scale(4.12)"><circle cx="3" cy="3" r="2"/></g>
<g transform="translate(792,528) scale(4.12)"><circle cx="3" cy="3" r="2"/></g>
<g transform="translate(816,528) scale(4.12)"><circle cx="3" cy="3" r="2"/></g>
<g transform="translate(864,528) scale(4.12)"><circle cx="3" cy="3" r="2"/></g>
<g transform="translate(888,528) scale(4.12)"><circle cx="3" cy="3" r="2"/></g>
<g transform="translate(912,528) scale(4.12)"><circle cx="3" cy="3" r="2"/></g>
<g transform="translate(48,552) scale(4.12)"><circle cx="3" cy="3" r="2"/></g>
<g transform="translate(96,552) scale(4.12)"><circle cx="3" cy="3" r="2"/></g>
<g transform="translate(120,552) scale(4.12)"><circle cx="3" cy="3" r="2"/></g>
<g transform="translate(144,552) scale(4.12)"><circle cx="3" cy="3" r="2"/></g>
<g transform="translate(216,552) scale(4.12)"><circle cx="3" cy="3" r="2"/></g>
<g transform="translate(288,552) scale(4.12)"><circle cx="3" cy="3" r="2"/></g>
<g transform="translate(312,552) scale(4.12)"><circle cx="3" cy="3" r="2"/></g>
<g transform="translate(336,552) scale(4.12)"><circle cx="3" cy="3" r="2"/></g>
<g transform="translate(432,552) scale(4.12)"><circle cx="3" cy="3" r="2"/></g>
<g transform="translate(456,552) scale(4.12)"><circle cx="3" cy="3" r="2"/></g>
<g transform="translate(504,552) scale(4.12)"><circle cx="3" cy="3" r="2"/></g>
<g transform="translate(552,552) scale(4.12)"><circle cx="3" cy="3" r="2"/></g>
<g transform="translate(576,552) scale(4.12)"><circle cx="3" cy="3" r="2"/></g>
<g transform="translate(600,552) scale(4.12)"><circle cx="3" cy="3" r="2"/></g>
<g transform="translate(648,552) scale(4.12)"><circle cx="3" cy="3" r="2"/></g>
<g transform="translate(744,552) scale(4.12)"><circle cx="3" cy="3" r="2"/></g>
<g transform="translate(792,552) scale(4.12)"><circle cx="3" cy="3" r="2"/></g>
<g transform="translate(888,552) scale(4.12)"><circle cx="3" cy="3" r="2"/></g>
<g transform="translate(72,576) scale(4.12)"><circle cx="3" cy="3" r="2"/></g>
<g transform="translate(96,576) scale(4.12)"><circle cx="3" cy="3" r="2"/></g>
<g transform="translate(120,576) scale(4.12)"><circle cx="3" cy="3" r="2"/></g>
<g transform="translate(168,576) scale(4.12)"><circle cx="3" cy="3" r="2"/></g>
<g transform="translate(192,576) scale(4.12)"><circle cx="3" cy="3" r="2"/></g>
<g transform="translate(240,576) scale(4.12)"><circle cx="3" cy="3" r="2"/></g>
<g transform="translate(264,576) scale(4.12)"><circle cx="3" cy="3" r="2"/></g>
<g transform="translate(288,576) scale(4.12)"><circle cx="3" cy="3" r="2"/></g>
<g transform="translate(336,576) scale(4.12)"><circle cx="3" cy="3" r="2"/></g>
<g transform="translate(408,576) scale(4.12)"><circle cx="3" cy="3" r="2"/></g>
<g transform="translate(432,576) scale(4.12)"><circle cx="3" cy="3" r="2"/></g>
<g transform="translate(456,576) scale(4.12)"><circle cx="3" cy="3" r="2"/></g>
<g transform="translate(528,576) scale(4.12)"><circle cx="3" cy="3" r="2"/></g>
<g transform="translate(552,576) scale(4.12)"><circle cx="3" cy="3" r="2"/></g>
<g transform="translate(576,576) scale(4.12)"><circle cx="3" cy="3" r="2"/></g>
<g transform="translate(624,576) scale(4.12)"><circle cx="3" cy="3" r="2"/></g>
<g transform="translate(648,576) scale(4.12)"><circle cx="3" cy="3" r="2"/></g>
<g transform="translate(672,576) scale(4.12)"><circle cx="3" cy="3" r="2"/></g>
<g transform="translate(696,576) scale(4.12)"><circle cx="3" cy="3" r="2"/></g>
<g transform="translate(744,576) scale(4.12)"><circle cx="3" cy="3" r="2"/></g>
<g transform="translate(768,576) scale(4.12)"><circle cx="3" cy="3" r="2"/></g>
<g transform="translate(888,576) scale(4.12)"><circle cx="3" cy="3" r="2"/></g>
<g transform="translate(912,576) scale(4.12)"><circle cx="3" cy="3" r="2"/></g>
<g transform="translate(48,600) scale(4.12)"><circle cx="3" cy="3" r="2"/></g>
<g transform="translate(120,600) scale(4.12)"><circle cx="3" cy="3" r="2"/></g>
<g transform="translate(168,600) scale(4.12)"><circle cx="3" cy="3" r="2"/></g>
<g transform="translate(216,600) scale(4.12)"><circle cx="3" cy="3" r="2"/></g>
<g transform="translate(312,600) scale(4.12)"><circle cx="3" cy="3" r="2"/></g>
<g transform="translate(336,600) scale(4.12)"><circle cx="3" cy="3" r="2"/></g>
<g transform="translate(360,600) scale(4.12)"><circle cx="3" cy="3" r="2"/></g>
<g transform="translate(384,600) scale(4.12)"><circle cx="3" cy="3" r="2"/></g>
<g transform="translate(408,600) scale(4.12)"><circle cx="3" cy="3" r="2"/></g>
<g transform="translate(456,600) scale(4.12)"><circle cx="3" cy="3" r="2"/></g>
<g transform="translate(480,600) scale(4.12)"><circle cx="3" cy="3" r="2"/></g>
<g transform="translate(504,600) scale(4.12)"><circle cx="3" cy="3" r="2"/></g>
<g transform="translate(528,600) scale(4.12)"><circle cx="3" cy="3" r="2"/></g>
<g transform="translate(552,600) scale(4.12)"><circle cx="3" cy="3" r="2"/></g>
<g transform="translate(600,600) scale(4.12)"><circle cx="3" cy="3" r="2"/></g>
<g transform="translate(648,600) scale(4.12)"><circle cx="3" cy="3" r="2"/></g>
<g transform="translate(744,600) scale(4.12)"><circle cx="3" cy="3" r="2"/></g>
<g transform="translate(768,600) scale(4.12)"><circle cx="3" cy="3" r="2"/></g>
<g transform="translate(792,600) scale(4.12)"><circle cx="3" cy="3" r="2"/></g>
<g transform="translate(888,600) scale(4.12)"><circle cx="3" cy="3" r="2"/></g>
<g transform="translate(912,600) scale(4.12)"><circle cx="3" cy="3" r="2"/></g>
<g transform="translate(48,624) scale(4.12)"><circle cx="3" cy="3" r="2"/></g>
<g transform="translate(168,624) scale(4.12)"><circle cx="3" cy="3" r="2"/></g>
<g transform="translate(192,624) scale(4.12)"><circle cx="3" cy="3" r="2"/></g>
<g transform="translate(264,624) scale(4.12)"><circle cx="3" cy="3" r="2"/></g>
<g transform="translate(288,624) scale(4.12)"><circle cx="3" cy="3" r="2"/></g>
<g transform="translate(336,624) scale(4.12)"><circle cx="3" cy="3" r="2"/></g>
<g transform="translate(360,624) scale(4.12)"><circle cx="3" cy="3" r="2"/></g>
<g transform="translate(384,624) scale(4.12)"><circle cx="3" cy="3" r="2"/></g>
<g transform="translate(432,624) scale(4.12)"><circle cx="3" cy="3" r="2"/></g>
<g transform="translate(456,624) scale(4.12)"><circle cx="3" cy="3" r="2"/></g>
<g transform="translate(528,624) scale(4.12)"><circle cx="3" cy="3" r="2"/></g>
<g transform="translate(552,624) scale(4.12)"><circle cx="3" cy="3" r="2"/></g>
<g transform="translate(576,624) scale(4.12)"><circle cx="3" cy="3" r="2"/></g>
<g transform="translate(624,624) scale(4.12)"><circle cx="3" cy="3" r="2"/></g>
<g transform="translate(672,624) scale(4.12)"><circle cx="3" cy="3" r="2"/></g>
<g transform="translate(768,624) scale(4.12)"><circle cx="3" cy="3" r="2"/></g>
<g transform="translate(816,624) scale(4.12)"><circle cx="3" cy="3" r="2"/></g>
<g transform="translate(864,624) scale(4.12)"><circle cx="3" cy="3" r="2"/></g>
<g transform="translate(888,624) scale(4.12)"><circle cx="3" cy="3" r="2"/></g>
<g transform="translate(48,648) scale(4.12)"><circle cx="3" cy="3" r="2"/></g>
<g transform="translate(96,648) scale(4.12)"><circle cx="3" cy="3" r="2"/></g>
<g transform="translate(144,648) scale(4.12)"><circle cx="3" cy="3" r="2"/></g>
<g transform="translate(216,648) scale(4.12)"><circle cx="3" cy="3" r="2"/></g>
<g transform="translate(240,648) scale(4.12)"><circle cx="3" cy="3" r="2"/></g>
<g transform="translate(264,648) scale(4.12)"><circle cx="3" cy="3" r="2"/></g>
<g transform="translate(312,648) scale(4.12)"><circle cx="3" cy="3" r="2"/></g>
<g transform="translate(360,648) scale(4.12)"><circle cx="3" cy="3" r="2"/></g>
<g transform="translate(408,648) scale(4.12)"><circle cx="3" cy="3" r="2"/></g>
<g transform="translate(480,648) scale(4.12)"><circle cx="3" cy="3" r="2"/></g>
<g transform="translate(528,648) scale(4.12)"><circle cx="3" cy="3" r="2"/></g>
<g transform="translate(576,648) scale(4.12)"><circle cx="3" cy="3" r="2"/></g>
<g transform="translate(696,648) scale(4.12)"><circle cx="3" cy="3" r="2"/></g>
<g transform="translate(792,648) scale(4.12)"><circle cx="3" cy="3" r="2"/></g>
<g transform="translate(840,648) scale(4.12)"><circle cx="3" cy="3" r="2"/></g>
<g transform="translate(48,672) scale(4.12)"><circle cx="3" cy="3" r="2"/></g>
<g transform="translate(120,672) scale(4.12)"><circle cx="3" cy="3" r="2"/></g>
<g transform="translate(168,672) scale(4.12)"><circle cx="3" cy="3" r="2"/></g>
<g transform="translate(192,672) scale(4.12)"><circle cx="3" cy="3" r="2"/></g>
<g transform="translate(240,672) scale(4.12)"><circle cx="3" cy="3" r="2"/></g>
<g transform="translate(264,672) scale(4.12)"><circle cx="3" cy="3" r="2"/></g>
<g transform="translate(312,672) scale(4.12)"><circle cx="3" cy="3" r="2"/></g>
<g transform="translate(360,672) scale(4.12)"><circle cx="3" cy="3" r="2"/></g>
<g transform="translate(384,672) scale(4.12)"><circle cx="3" cy="3" r="2"/></g>
<g transform="translate(528,672) scale(4.12)"><circle cx="3" cy="3" r="2"/></g>
<g transform="translate(576,672) scale(4.12)"><circle cx="3" cy="3" r="2"/></g>
<g transform="translate(600,672) scale(4.12)"><circle cx="3" cy="3" r="2"/></g>
<g transform="translate(624,672) scale(4.12)"><circle cx="3" cy="3" r="2"/></g>
<g transform="translate(648,672) scale(4.12)"><circle cx="3" cy="3" r="2"/></g>
<g transform="translate(672,672) scale(4.12)"><circle cx="3" cy="3" r="2"/></g>
<g transform="translate(696,672) scale(4.12)"><circle cx="3" cy="3" r="2"/></g>
<g transform="translate(720,672) scale(4.12)"><circle cx="3" cy="3" r="2"/></g>
<g transform="translate(768,672) scale(4.12)"><circle cx="3" cy="3" r="2"/></g>
<g transform="translate(816,672) scale(4.12)"><circle cx="3" cy="3" r="2"/></g>
<g transform="translate(888,672) scale(4.12)"><circle cx="3" cy="3" r="2"/></g>
<g transform="translate(912,672) scale(4.12)"><circle cx="3" cy="3" r="2"/></g>
<g transform="translate(48,696) scale(4.12)"><circle cx="3" cy="3" r="2"/></g>
<g transform="translate(264,696) scale(4.12)"><circle cx="3" cy="3" r="2"/></g>
<g transform="translate(312,696) scale(4.12)"><circle cx="3" cy="3" r="2"/></g>
<g transform="translate(336,696) scale(4.12)"><circle cx="3" cy="3" r="2"/></g>
<g transform="translate(408,696) scale(4.12)"><circle cx="3" cy="3" r="2"/></g>
<g transform="translate(432,696) scale(4.12)"><circle cx="3" cy="3" r="2"/></g>
<g transform="translate(456,696) scale(4.12)"><circle cx="3" cy="3" r="2"/></g>
<g transform="translate(480,696) scale(4.12)"><circle cx="3" cy="3" r="2"/></g>
<g transform="translate(552,696) scale(4.12)"><circle cx="3" cy="3" r="2"/></g>
<g transform="translate(600,696) scale(4.12)"><circle cx="3" cy="3" r="2"/></g>
<g transform="translate(720,696) scale(4.12)"><circle cx="3" cy="3" r="2"/></g>
<g transform="translate(744,696) scale(4.12)"><circle cx="3" cy="3" r="2"/></g>
<g transform="translate(888,696) scale(4.12)"><circle cx="3" cy="3" r="2"/></g>
<g transform="translate(912,696) scale(4.12)"><circle cx="3" cy="3" r="2"/></g>
<g transform="translate(48,720) scale(4.12)"><circle cx="3" cy="3" r="2"/></g>
<g transform="translate(144,720) scale(4.12)"><circle cx="3" cy="3" r="2"/></g>
<g transform="translate(192,720) scale(4.12)"><circle cx="3" cy="3" r="2"/></g>
<g transform="translate(240,720) scale(4.12)"><circle cx="3" cy="3" r="2"/></g>
<g transform="translate(264,720) scale(4.12)"><circle cx="3" cy="3" r="2"/></g>
<g transform="translate(288,720) scale(4.12)"><circle cx="3" cy="3" r="2"/></g>
<g transform="translate(312,720) scale(4.12)"><circle cx="3" cy="3" r="2"/></g>
<g transform="translate(360,720) scale(4.12)"><circle cx="3" cy="3" r="2"/></g>
<g transform="translate(408,720) scale(4.12)"><circle cx="3" cy="3" r="2"/></g>
<g transform="translate(432,720) scale(4.12)"><circle cx="3" cy="3" r="2"/></g>
<g transform="translate(480,720) scale(4.12)"><circle cx="3" cy="3" r="2"/></g>
<g transform="translate(552,720) scale(4.12)"><circle cx="3" cy="3" r="2"/></g>
<g transform="translate(576,720) scale(4.12)"><circle cx="3" cy="3" r="2"/></g>
<g transform="translate(600,720) scale(4.12)"><circle cx="3" cy="3" r="2"/></g>
<g transform="translate(624,720) scale(4.12)"><circle cx="3" cy="3" r="2"/></g>
<g transform="translate(648,720) scale(4.12)"><circle cx="3" cy="3" r="2"/></g>
<g transform="translate(672,720) scale(4.12)"><circle cx="3" cy="3" r="2"/></g>
<g transform="translate(720,720) scale(4.12)"><circle cx="3" cy="3" r="2"/></g>
<g transform="translate(744,720) scale(4.12)"><circle cx="3" cy="3" r="2"/></g>
<g transform="translate(768,720) scale(4.12)"><circle cx="3" cy="3" r="2"/></g>
<g transform="translate(792,720) scale(4.12)"><circle cx="3" cy="3" r="2"/></g>
<g transform="translate(816,720) scale(4.12)"><circle cx="3" cy="3" r="2"/></g>
<g transform="translate(840,720) scale(4.12)"><circle cx="3" cy="3" r="2"/></g>
<g transform="translate(864,720) scale(4.12)"><circle cx="3" cy="3" r="2"/></g>
<g transform="translate(240,744) scale(4.12)"><circle cx="3" cy="3" r="2"/></g>
<g transform="translate(288,744) scale(4.12)"><circle cx="3" cy="3" r="2"/></g>
<g transform="translate(336,744) scale(4.12)"><circle cx="3" cy="3" r="2"/></g>
<g transform="translate(384,744) scale(4.12)"><circle cx="3" cy="3" r="2"/></g>
<g transform="translate(408,744) scale(4.12)"><circle cx="3" cy="3" r="2"/></g>
<g transform="translate(432,744) scale(4.12)"><circle cx="3" cy="3" r="2"/></g>
<g transform="translate(480,744) scale(4.12)"><circle cx="3" cy="3" r="2"/></g>
<g transform="translate(552,744) scale(4.12)"><circle cx="3" cy="3" r="2"/></g>
<g transform="translate(576,744) scale(4.12)"><circle cx="3" cy="3" r="2"/></g>
<g transform="translate(600,744) scale(4.12)"><circle cx="3" cy="3" r="2"/></g>
<g transform="translate(624,744) scale(4.12)"><circle cx="3" cy="3" r="2"/></g>
<g transform="translate(648,744) scale(4.12)"><circle cx="3" cy="3" r="2"/></g>
<g transform="translate(720,744) scale(4.12)"><circle cx="3" cy="3" r="2"/></g>
<g transform="translate(816,744) scale(4.12)"><circle cx="3" cy="3" r="2"/></g>
<g transform="translate(264,768) scale(4.12)"><circle cx="3" cy="3" r="2"/></g>
<g transform="translate(312,768) scale(4.12)"><circle cx="3" cy="3" r="2"/></g>
<g transform="translate(336,768) scale(4.12)"><circle cx="3" cy="3" r="2"/></g>
<g transform="translate(360,768) scale(4.12)"><circle cx="3" cy="3" r="2"/></g>
<g transform="translate(504,768) scale(4.12)"><circle cx="3" cy="3" r="2"/></g>
<g transform="translate(528,768) scale(4.12)"><circle cx="3" cy="3" r="2"/></g>
<g transform="translate(552,768) scale(4.12)"><circle cx="3" cy="3" r="2"/></g>
<g transform="translate(624,768) scale(4.12)"><circle cx="3" cy="3" r="2"/></g>
<g transform="translate(672,768) scale(4.12)"><circle cx="3" cy="3" r="2"/></g>
<g transform="translate(720,768) scale(4.12)"><circle cx="3" cy="3" r="2"/></g>
<g transform="translate(768,768) scale(4.12)"><circle cx="3" cy="3" r="2"/></g>
<g transform="translate(816,768) scale(4.12)"><circle cx="3" cy="3" r="2"/></g>
<g transform="translate(840,768) scale(4.12)"><circle cx="3" cy="3" r="2"/></g>
<g transform="translate(888,768) scale(4.12)"><circle cx="3" cy="3" r="2"/></g>
<g transform="translate(912,768) scale(4.12)"><circle cx="3" cy="3" r="2"/></g>
<g transform="translate(288,792) scale(4.12)"><circle cx="3" cy="3" r="2"/></g>
<g transform="translate(312,792) scale(4.12)"><circle cx="3" cy="3" r="2"/></g>
<g transform="translate(360,792) scale(4.12)"><circle cx="3" cy="3" r="2"/></g>
<g transform="translate(384,792) scale(4.12)"><circle cx="3" cy="3" r="2"/></g>
<g transform="translate(408,792) scale(4.12)"><circle cx="3" cy="3" r="2"/></g>
<g transform="translate(480,792) scale(4.12)"><circle cx="3" cy="3" r="2"/></g>
<g transform="translate(552,792) scale(4.12)"><circle cx="3" cy="3" r="2"/></g>
<g transform="translate(576,792) scale(4.12)"><circle cx="3" cy="3" r="2"/></g>
<g transform="translate(720,792) scale(4.12)"><circle cx="3" cy="3" r="2"/></g>
<g transform="translate(816,792) scale(4.12)"><circle cx="3" cy="3" r="2"/></g>
<g transform="translate(888,792) scale(4.12)"><circle cx="3" cy="3" r="2"/></g>
<g transform="translate(912,792) scale(4.12)"><circle cx="3" cy="3" r="2"/></g>
<g transform="translate(240,816) scale(4.12)"><circle cx="3" cy="3" r="2"/></g>
<g transform="translate(288,816) scale(4.12)"><circle cx="3" cy="3" r="2"/></g>
<g transform="translate(336,816) scale(4.12)"><circle cx="3" cy="3" r="2"/></g>
<g transform="translate(360,816) scale(4.12)"><circle cx="3" cy="3" r="2"/></g>
<g transform="translate(384,816) scale(4.12)"><circle cx="3" cy="3" r="2"/></g>
<g transform="translate(456,816) scale(4.12)"><circle cx="3" cy="3" r="2"/></g>
<g transform="translate(504,816) scale(4.12)"><circle cx="3" cy="3" r="2"/></g>
<g transform="translate(576,816) scale(4.12)"><circle cx="3" cy="3" r="2"/></g>
<g transform="translate(600,816) scale(4.12)"><circle cx="3" cy="3" r="2"/></g>
<g transform="translate(648,816) scale(4.12)"><circle cx="3" cy="3" r="2"/></g>
<g transform="translate(672,816) scale(4.12)"><circle cx="3" cy="3" r="2"/></g>
<g transform="translate(696,816) scale(4.12)"><circle cx="3" cy="3" r="2"/></g>
<g transform="translate(720,816) scale(4.12)"><circle cx="3" cy="3" r="2"/></g>
<g transform="translate(744,816) scale(4.12)"><circle cx="3" cy="3" r="2"/></g>
<g transform="translate(768,816) scale(4.12)"><circle cx="3" cy="3" r="2"/></g>
<g transform="translate(792,816) scale(4.12)"><circle cx="3" cy="3" r="2"/></g>
<g transform="translate(816,816) scale(4.12)"><circle cx="3" cy="3" r="2"/></g>
<g transform="translate(864,816) scale(4.12)"><circle cx="3" cy="3" r="2"/></g>
<g transform="translate(240,840) scale(4.12)"><circle cx="3" cy="3" r="2"/></g>
<g transform="translate(264,840) scale(4.12)"><circle cx="3" cy="3" r="2"/></g>
<g transform="translate(288,840) scale(4.12)"><circle cx="3" cy="3" r="2"/></g>
<g transform="translate(312,840) scale(4.12)"><circle cx="3" cy="3" r="2"/></g>
<g transform="translate(336,840) scale(4.12)"><circle cx="3" cy="3" r="2"/></g>
<g transform="translate(384,840) scale(4.12)"><circle cx="3" cy="3" r="2"/></g>
<g transform="translate(432,840) scale(4.12)"><circle cx="3" cy="3" r="2"/></g>
<g transform="translate(456,840) scale(4.12)"><circle cx="3" cy="3" r="2"/></g>
<g transform="translate(480,840) scale(4.12)"><circle cx="3" cy="3" r="2"/></g>
<g transform="translate(528,840) scale(4.12)"><circle cx="3" cy="3" r="2"/></g>
<g transform="translate(576,840) scale(4.12)"><circle cx="3" cy="3" r="2"/></g>
<g transform="translate(624,840) scale(4.12)"><circle cx="3" cy="3" r="2"/></g>
<g transform="translate(648,840) scale(4.12)"><circle cx="3" cy="3" r="2"/></g>
<g transform="translate(768,840) scale(4.12)"><circle cx="3" cy="3" r="2"/></g>
<g transform="translate(816,840) scale(4.12)"><circle cx="3" cy="3" r="2"/></g>
<g transform="translate(840,840) scale(4.12)"><circle cx="3" cy="3" r="2"/></g>
<g transform="translate(240,864) scale(4.12)"><circle cx="3" cy="3" r="2"/></g>
<g transform="translate(312,864) scale(4.12)"><circle cx="3" cy="3" r="2"/></g>
<g transform="translate(336,864) scale(4.12)"><circle cx="3" cy="3" r="2"/></g>
<g transform="translate(384,864) scale(4.12)"><circle cx="3" cy="3" r="2"/></g>
<g transform="translate(408,864) scale(4.12)"><circle cx="3" cy="3" r="2"/></g>
<g transform="translate(480,864) scale(4.12)"><circle cx="3" cy="3" r="2"/></g>
<g transform="translate(504,864) scale(4.12)"><circle cx="3" cy="3" r="2"/></g>
<g transform="translate(528,864) scale(4.12)"><circle cx="3" cy="3" r="2"/></g>
<g transform="translate(552,864) scale(4.12)"><circle cx="3" cy="3" r="2"/></g>
<g transform="translate(576,864) scale(4.12)"><circle cx="3" cy="3" r="2"/></g>
<g transform="translate(672,864) scale(4.12)"><circle cx="3" cy="3" r="2"/></g>
<g transform="translate(696,864) scale(4.12)"><circle cx="3" cy="3" r="2"/></g>
<g transform="translate(720,864) scale(4.12)"><circle cx="3" cy="3" r="2"/></g>
<g transform="translate(744,864) scale(4.12)"><circle cx="3" cy="3" r="2"/></g>
<g transform="translate(840,864) scale(4.12)"><circle cx="3" cy="3" r="2"/></g>
<g transform="translate(912,864) scale(4.12)"><circle cx="3" cy="3" r="2"/></g>
<g transform="translate(264,888) scale(4.12)"><circle cx="3" cy="3" r="2"/></g>
<g transform="translate(312,888) scale(4.12)"><circle cx="3" cy="3" r="2"/></g>
<g transform="translate(336,888) scale(4.12)"><circle cx="3" cy="3" r="2"/></g>
<g transform="translate(360,888) scale(4.12)"><circle cx="3" cy="3" r="2"/></g>
<g transform="translate(408,888) scale(4.12)"><circle cx="3" cy="3" r="2"/></g>
<g transform="translate(432,888) scale(4.12)"><circle cx="3" cy="3" r="2"/></g>
<g transform="translate(456,888) scale(4.12)"><circle cx="3" cy="3" r="2"/></g>
<g transform="translate(528,888) scale(4.12)"><circle cx="3" cy="3" r="2"/></g>
<g transform="translate(576,888) scale(4.12)"><circle cx="3" cy="3" r="2"/></g>
<g transform="translate(624,888) scale(4.12)"><circle cx="3" cy="3" r="2"/></g>
<g transform="translate(696,888) scale(4.12)"><circle cx="3" cy="3" r="2"/></g>
<g transform="translate(720,888) scale(4.12)"><circle cx="3" cy="3" r="2"/></g>
<g transform="translate(744,888) scale(4.12)"><circle cx="3" cy="3" r="2"/></g>
<g transform="translate(912,888) scale(4.12)"><circle cx="3" cy="3" r="2"/></g>
<g transform="translate(360,912) scale(4.12)"><circle cx="3" cy="3" r="2"/></g>
<g transform="translate(384,912) scale(4.12)"><circle cx="3" cy="3" r="2"/></g>
<g transform="translate(408,912) scale(4.12)"><circle cx="3" cy="3" r="2"/></g>
<g transform="translate(456,912) scale(4.12)"><circle cx="3" cy="3" r="2"/></g>
<g transform="translate(504,912) scale(4.12)"><circle cx="3" cy="3" r="2"/></g>
<g transform="translate(576,912) scale(4.12)"><circle cx="3" cy="3" r="2"/></g>
<g transform="translate(624,912) scale(4.12)"><circle cx="3" cy="3" r="2"/></g>
<g transform="translate(648,912) scale(4.12)"><circle cx="3" cy="3" r="2"/></g>
<g transform="translate(672,912) scale(4.12)"><circle cx="3" cy="3" r="2"/></g>
<g transform="translate(816,912) scale(4.12)"><circle cx="3" cy="3" r="2"/></g>
<g transform="translate(864,912) scale(4.12)"><circle cx="3" cy="3" r="2"/></g>
<g transform="translate(888,912) scale(4.12)"><circle cx="3" cy="3" r="2"/></g>
<g transform="translate(912,912) scale(4.12)"><circle cx="3" cy="3" r="2"/></g>
<g transform="translate(48,48)"><g transform="scale(12)"><path d="M4.5,14h5.1C12,14,14,12,14,9.6V4.5C14,2,12,0,9.5,0H4.4C2,0,0,2,0,4.4v5.1C0,12,2,14,4.5,14z M12,4.8v4.4 c0,1.5-1.3,2.8-2.8,2.8H4.8C3.2,12,2,10.8,2,9.2V4.8C2,3.3,3.3,2,4.8,2h4.4C10.8,2,12,3.2,12,4.8z"/></g></g>
<g transform="translate(768,48)"><g transform="scale(12)"><path d="M4.5,14h5.1C12,14,14,12,14,9.6V4.5C14,2,12,0,9.5,0H4.4C2,0,0,2,0,4.4v5.1C0,12,2,14,4.5,14z M12,4.8v4.4 c0,1.5-1.3,2.8-2.8,2.8H4.8C3.2,12,2,10.8,2,9.2V4.8C2,3.3,3.3,2,4.8,2h4.4C10.8,2,12,3.2,12,4.8z"/></g></g>
<g transform="translate(48,768)"><g transform="scale(12)"><path d="M4.5,14h5.1C12,14,14,12,14,9.6V4.5C14,2,12,0,9.5,0H4.4C2,0,0,2,0,4.4v5.1C0,12,2,14,4.5,14z M12,4.8v4.4 c0,1.5-1.3,2.8-2.8,2.8H4.8C3.2,12,2,10.8,2,9.2V4.8C2,3.3,3.3,2,4.8,2h4.4C10.8,2,12,3.2,12,4.8z"/></g></g>
<g transform="translate(96,96)"><g transform="scale(12)"><circle cx="3" cy="3" r="3"/></g></g>
<g transform="translate(816,96)"><g transform="scale(12)"><circle cx="3" cy="3" r="3"/></g></g>
<g transform="translate(96,816)"><g transform="scale(12)"><circle cx="3" cy="3" r="3"/></g></g>
</g></svg>
