<?xml version="1.0" encoding="utf-8"?>
<svg xmlns="http://www.w3.org/2000/svg" xmlns:xlink="http://www.w3.org/1999/xlink" version="1.1" width="773" height="540" viewBox="0 0 773 540" xml:space="preserve"><title>LIFO (Last In, First Out) Stack</title>
<style type="text/css">
	line{
		fill: none;
	}
	line.grey{
		stroke: #c3c3c3;
	}
	rect{
		fill: #fff;
		stroke: #000;
	}
	path{
		fill: none;
		stroke: #000;
		stroke-miterlimit: 10;
	}
	text{
		font-family: Helvetica, Arial, sans-serif;
		font-size: 29px;
		text-anchor: middle;
	}
	.action{
		font-size: 25px;
	}
	.step-number{
		fill: #c3c3c3;
		text-anchor: start;
	}
</style>
<line y1="273.5" x2="773" y2="273.5" class="grey"/>
<g id="step-1">
	<switch><text class="step-number" y="24.68" id="trsvg61"><tspan id="trsvg1">1</tspan></text></switch>
	<switch><text class="action" x="71.2252" y="192" id="trsvg62-yue" systemLanguage="yue"><tspan id="trsvg2-yue">推</tspan></text><text class="action" x="71.2252" y="192" id="trsvg62"><tspan id="trsvg2">Push</tspan></text></switch>
	<g><rect x="36.5" y="127.5" width="41" height="31"/><switch><text x="57.1838" y="153.82" id="trsvg63"><tspan id="trsvg3">2</tspan></text></switch></g>
	<g><rect x="109.5" y="206.5" width="41" height="31"/><switch><text x="130.1837" y="232.82" id="trsvg64"><tspan id="trsvg4">1</tspan></text></switch></g>
	<g>
		<path d="M82.0328,144.5119c23.6673,4.2083,41.2142,15.0694,46.8593,38.8678"/>
		<polygon points="129.73,202.2001 124.0667,183.0401 135.3933,183.0401"/>
	</g>
</g>
<g id="step-2">
	<line class="grey" x1="153.5" y1="4" x2="153.5" y2="269"/>
	<switch><text class="step-number" x="154.9812" y="23.68" id="trsvg65"><tspan id="trsvg5">2</tspan></text></switch>
	<switch><text class="action" x="226.2252" y="161" id="trsvg66-yue" systemLanguage="yue"><tspan id="trsvg6-yue">推</tspan></text><text class="action" x="226.2252" y="161" id="trsvg66"><tspan id="trsvg6">Push</tspan></text></switch>
	<g><rect x="191.5" y="96.5" width="41" height="31"/><switch><text x="212.1837" y="122.82" id="trsvg67"><tspan id="trsvg7">3</tspan></text></switch></g>
	<g><rect x="264.5" y="175.5" width="41" height="31"/><switch><text x="285.1837" y="201.82" id="trsvg68"><tspan id="trsvg8">2</tspan></text></switch></g>
	<g><rect x="264.5" y="206.5" width="41" height="31"/><switch><text x="285.1837" y="232.82" id="trsvg69"><tspan id="trsvg9">1</tspan></text></switch></g>
	<g>
		<path d="M236.7776,113.4539c23.6672,4.2083,41.2142,15.0694,46.8593,38.8678"/>
		<polygon points="284.4748,171.1422 278.8115,151.9821 290.1381,151.9821"/>
	</g>
</g>
<g id="step-3">
	<line class="grey" x1="308.5" y1="4" x2="308.5" y2="269"/>
	<switch><text class="step-number" x="309.9812" y="23.68" id="trsvg70"><tspan id="trsvg10">3</tspan></text></switch>
	<switch><text class="action" x="381.5331" y="129.2554" id="trsvg71-yue" systemLanguage="yue"><tspan id="trsvg11-yue">推</tspan></text><text class="action" x="381.5331" y="129.2554" id="trsvg71"><tspan id="trsvg11">Push</tspan></text></switch>
	<g><rect x="346.5" y="65.5" width="41" height="31"/><switch><text x="366.1837" y="91.82" id="trsvg72"><tspan id="trsvg12">4</tspan></text></switch></g>
	<g><rect x="419.5" y="175.5" width="41" height="31"/><switch><text x="440.1837" y="201.82" id="trsvg73"><tspan id="trsvg13">2</tspan></text></switch></g>
	<g><rect x="419.5" y="144.5" width="41" height="31"/><switch><text x="440.1837" y="170.82" id="trsvg74"><tspan id="trsvg14">3</tspan></text></switch></g>
	<g><rect x="419.5" y="206.5" width="41" height="31"/><switch><text x="440.1837" y="232.82" id="trsvg75"><tspan id="trsvg15">1</tspan></text></switch></g>
	<g>
		<path d="M392.0672,82.396c23.6672,4.2083,41.2142,15.0694,46.8593,38.8678"/>
		<polygon points="439.7645,140.0842 434.1012,120.9242 445.4278,120.9242"/>
	</g>
</g>
<g id="step-4">
	<line class="grey" x1="463.5" y1="4" x2="463.5" y2="269"/>
	<switch><text class="step-number" x="465.9812" y="23.68" id="trsvg76"><tspan id="trsvg16">4</tspan></text></switch>
	<switch><text class="action" x="536.8228" y="98.7423" id="trsvg77-yue" systemLanguage="yue"><tspan id="trsvg17-yue">推</tspan></text><text class="action" x="536.8228" y="98.7423" id="trsvg77"><tspan id="trsvg17">Push</tspan></text></switch>
	<g><rect x="574.5" y="113.5" width="41" height="31"/><switch><text x="594.1837" y="139.82" id="trsvg78"><tspan id="trsvg18">4</tspan></text></switch></g>
	<g><rect x="502.5" y="33.5" width="41" height="31"/><switch><text x="522.1837" y="59.82" id="trsvg79"><tspan id="trsvg19">5</tspan></text></switch></g>
	<g><rect x="574.5" y="175.5" width="41" height="31"/><switch><text x="595.1837" y="201.82" id="trsvg80"><tspan id="trsvg20">2</tspan></text></switch></g>
	<g><rect x="574.5" y="144.5" width="41" height="31"/><switch><text x="595.1837" y="170.82" id="trsvg81"><tspan id="trsvg21">3</tspan></text></switch></g>
	<g><rect x="574.5" y="206.5" width="41" height="31"/><switch><text x="595.1837" y="232.82" id="trsvg82"><tspan id="trsvg22">1</tspan></text></switch></g>
	<g>
		<path d="M546.812,51.3381c23.6672,4.2083,41.2142,15.0694,46.8594,38.8678"/>
		<polygon points="594.5093,109.0263 588.8459,89.8662 600.1726,89.8662"/>
	</g>
</g>
<g id="step-5">
	<line class="grey" x1="618.5" y1="4" x2="618.5" y2="269"/>
	<switch><text class="step-number" x="619.9812" y="22.68" id="trsvg83"><tspan id="trsvg23">5</tspan></text></switch>
	<switch><text class="action" x="691.5676" y="67.6844" id="trsvg84-yue" systemLanguage="yue"><tspan id="trsvg24-yue">推</tspan></text><text class="action" x="691.5676" y="67.6844" id="trsvg84"><tspan id="trsvg24">Push</tspan></text></switch>
	<g><rect x="656.5" y="3.5" width="41" height="31"/><switch><text x="677.1837" y="29.82" id="trsvg85"><tspan id="trsvg25">6</tspan></text></switch></g>
	<g><rect x="729.5" y="113.5" width="41" height="31"/><switch><text x="749.1837" y="139.82" id="trsvg86"><tspan id="trsvg26">4</tspan></text></switch></g>
	<g><rect x="729.5" y="82.5" width="41" height="31"/><switch><text x="750.1837" y="108.82" id="trsvg87"><tspan id="trsvg27">5</tspan></text></switch></g>
	<g><rect x="729.5" y="175.5" width="41" height="31"/><switch><text x="750.1837" y="201.82" id="trsvg88"><tspan id="trsvg28">2</tspan></text></switch></g>
	<g><rect x="729.5" y="144.5" width="41" height="31"/><switch><text x="750.1837" y="170.82" id="trsvg89"><tspan id="trsvg29">3</tspan></text></switch></g>
	<g><rect x="729.5" y="206.5" width="41" height="31"/><switch><text x="750.1837" y="232.82" id="trsvg90"><tspan id="trsvg30">1</tspan></text></switch></g>
	<g>
		<path d="M702.1017,20.2801c23.6673,4.2083,41.2142,15.0694,46.8594,38.8678"/>
		<polygon points="749.799,77.9684 744.1356,58.8083 755.4623,58.8083"/>
	</g>
</g>
<g id="step-6">
	<switch><text class="step-number" x="0.9812" y="297.68" id="trsvg91"><tspan id="trsvg31">6</tspan></text></switch>
	<switch><text class="action" x="81.2252" y="332.1" id="trsvg92-yue" systemLanguage="yue"><tspan id="trsvg32-yue">彈</tspan></text><text class="action" x="81.2252" y="332.1" id="trsvg92"><tspan id="trsvg32">Pop</tspan></text></switch>
	<g><rect x="109.5" y="278.5" width="41" height="31"/><switch><text x="130.184" y="304.82" id="trsvg93"><tspan id="trsvg33">6</tspan></text></switch></g>
	<g><rect x="36.5" y="380.5" width="41" height="31"/><switch><text x="56.1837" y="406.82" id="trsvg94"><tspan id="trsvg34">4</tspan></text></switch></g>
	<g><rect x="36.5" y="349.5" width="41" height="31"/><switch><text x="57.1837" y="375.82" id="trsvg95"><tspan id="trsvg35">5</tspan></text></switch></g>
	<g><rect x="36.5" y="442.5" width="41" height="31"/><switch><text x="57.1837" y="468.82" id="trsvg96"><tspan id="trsvg36">2</tspan></text></switch></g>
	<g><rect x="36.5" y="411.5" width="41" height="31"/><switch><text x="57.1837" y="437.82" id="trsvg97"><tspan id="trsvg37">3</tspan></text></switch></g>
	<g><rect x="36.5" y="473.5" width="41" height="31"/><switch><text x="57.1837" y="499.82" id="trsvg98"><tspan id="trsvg38">1</tspan></text></switch></g>
	<g>
		<path d="M38.5335,342.8468c3.9504-23.9746,15.4857-47.8593,53.0821-47.8593"/>
		<polygon points="107.4233,295.6633 89,301.3266 89,290"/>
	</g>
</g>
<g id="step-7">
	<line class="grey" x1="153.5" y1="278" x2="153.5" y2="537"/>
	<switch><text class="step-number" x="154.9812" y="297.68" id="trsvg99"><tspan id="trsvg39">7</tspan></text></switch>
	<switch><text class="action" x="237" y="362.61" id="trsvg100-yue" systemLanguage="yue"><tspan id="trsvg40-yue">彈</tspan></text><text class="action" x="237" y="362.61" id="trsvg100"><tspan id="trsvg40">Pop</tspan></text></switch>
	<g><rect x="264.5" y="309.5" width="41" height="31"/><switch><text x="285.1836" y="334.82" id="trsvg101"><tspan id="trsvg41">5</tspan></text></switch></g>
	<g><rect x="191.5" y="380.5" width="41" height="31"/><switch><text x="211.1838" y="406.82" id="trsvg102"><tspan id="trsvg42">4</tspan></text></switch></g>
	<g><rect x="191.5" y="442.5" width="41" height="31"/><switch><text x="212.1838" y="468.82" id="trsvg103"><tspan id="trsvg43">2</tspan></text></switch></g>
	<g><rect x="191.5" y="411.5" width="41" height="31"/><switch><text x="212.1838" y="437.82" id="trsvg104"><tspan id="trsvg44">3</tspan></text></switch></g>
	<g><rect x="191.5" y="473.5" width="41" height="31"/><switch><text x="212.1838" y="499.82" id="trsvg105"><tspan id="trsvg45">1</tspan></text></switch></g>
	<g>
		<path d="M193.8232,373.9047c3.9503-23.9745,15.4857-47.8593,53.0821-47.8593"/>
		<polygon points="262.713,326.7213 244.2897,332.3846 244.2897,321.0579"/>
	</g>
</g>
<g id="step-8">
	<line class="grey" x1="308.5" y1="278" x2="308.5" y2="537"/>
	<switch><text class="step-number" x="309.9812" y="298.68" id="trsvg106"><tspan id="trsvg46">8</tspan></text></switch>
	<switch><text class="action" x="391" y="393.61" id="trsvg107-yue" systemLanguage="yue"><tspan id="trsvg47-yue">彈</tspan></text><text class="action" x="391" y="393.61" id="trsvg107"><tspan id="trsvg47">Pop</tspan></text></switch>
	<g><rect x="420.1" y="340.8" width="41" height="31"/><switch><text x="439.757" y="367.1" id="trsvg108"><tspan id="trsvg48">4</tspan></text></switch></g>
	<g><rect x="346.5" y="442.5" width="41" height="31"/><switch><text x="367.1838" y="468.82" id="trsvg109"><tspan id="trsvg49">2</tspan></text></switch></g>
	<g><rect x="346.5" y="411.5" width="41" height="31"/><switch><text x="367.1838" y="437.82" id="trsvg110"><tspan id="trsvg50">3</tspan></text></switch></g>
	<g><rect x="346.5" y="473.5" width="41" height="31"/><switch><text x="367.1838" y="499.82" id="trsvg111"><tspan id="trsvg51">1</tspan></text></switch></g>
	<g>
		<path d="M348.8232,404.9047c3.9503-23.9745,15.4857-47.8593,53.0821-47.8593"/>
		<polygon points="417.713,357.7213 399.2897,363.3846 399.2897,352.0579"/>
	</g>
</g>
<g id="step-9">
	<line class="grey" x1="463.5" y1="278" x2="463.5" y2="537"/>
	<switch><text class="step-number" x="464.9812" y="299.68" id="trsvg112"><tspan id="trsvg52">9</tspan></text></switch>
	<switch><text class="action" x="546" y="424.61" id="trsvg113-yue" systemLanguage="yue"><tspan id="trsvg53-yue">彈</tspan></text><text class="action" x="546" y="424.61" id="trsvg113"><tspan id="trsvg53">Pop</tspan></text></switch>
	<g><rect x="574.5" y="371.5" width="41" height="31"/><switch><text x="594.1837" y="397.82" id="trsvg114"><tspan id="trsvg54">3</tspan></text></switch></g>
	<g><rect x="501.5" y="442.5" width="41" height="31"/><switch><text x="522.1837" y="468.82" id="trsvg115"><tspan id="trsvg55">2</tspan></text></switch></g>
	<g><rect x="501.5" y="473.5" width="41" height="31"/><switch><text x="522.1837" y="499.82" id="trsvg116"><tspan id="trsvg56">1</tspan></text></switch></g>
	<g>
		<path d="M503.8232,435.9047c3.9503-23.9745,15.4857-47.8593,53.0821-47.8593"/>
		<polygon points="572.713,388.7213 554.2897,394.3846 554.2897,383.0579"/>
	</g>
</g>
<g id="step-10">
	<line class="grey" x1="618.5" y1="278" x2="618.5" y2="537"/>
	<switch><text class="step-number" x="616.9812" y="299.68" id="trsvg117"><tspan id="trsvg57">10</tspan></text></switch>
	<switch><text class="action" x="700" y="454.61" id="trsvg118-yue" systemLanguage="yue"><tspan id="trsvg58-yue">彈</tspan></text><text class="action" x="700" y="454.61" id="trsvg118"><tspan id="trsvg58">Pop</tspan></text></switch>
	<g><rect x="655.5" y="472.5" width="41" height="31"/><switch><text x="676.1837" y="498.82" id="trsvg119"><tspan id="trsvg59">1</tspan></text></switch></g>
	<g><rect x="728.5" y="401.5" width="41" height="31"/><switch><text x="749.1837" y="427.82" id="trsvg120"><tspan id="trsvg60">2</tspan></text></switch></g>
	<g>
		<path d="M657.8231,465.9047c3.9504-23.9745,15.4857-47.8593,53.0822-47.8593"/>
		<polygon points="726.713,418.7213 708.2897,424.3846 708.2897,413.0579"/>
	</g>
</g>
</svg>
